<svg width="24" height="24" viewBox="0 0 24 24" fill="none" xmlns="http://www.w3.org/2000/svg">
<path d="M7.875 3.75C9.44364 3.75 10.8524 4.43766 11.8145 5.52832L12 5.75293L12.75 6.75C12.75 6.75 13.1248 7.3649 13.125 7.96484V15.75H10.875V9C10.875 7.34315 9.53185 6 7.875 6H2.25V18H8.34082L11.3408 21H12.6592L15.6592 18H21.75V7.57227L24 7.12207V20.25H16.5908L13.5908 23.25H10.4092L7.40918 20.25H0V3.75H7.875ZM18.6426 0.75L19.2861 3.96387L22.5 4.60742V5.89258L19.2861 6.53613L18.6426 9.75H17.3574L16.7139 6.53613L13.5 5.89258V4.60742L16.7139 3.96387L17.3574 0.75H18.6426Z" fill="white"/>
</svg>
