<svg width="24" height="24" viewBox="0 0 24 24" fill="none" xmlns="http://www.w3.org/2000/svg">
<path d="M6 22.5H0V16.5H6V22.5ZM15 22.5H9V16.5H15V22.5ZM24 22.5H18V16.5H24V22.5ZM1.875 20.625H4.125V18.375H1.875V20.625ZM10.875 20.625H13.125V18.375H10.875V20.625ZM19.875 20.625H22.125V18.375H19.875V20.625ZM24 15H0V12.75H24V15ZM6 11.25H0V5.25H6V11.25ZM15 11.25H9V5.25H15V11.25ZM24 11.25H18V5.25H24V11.25ZM1.875 9.375H4.125V7.125H1.875V9.375ZM10.875 9.375H13.125V7.125H10.875V9.375ZM19.875 9.375H22.125V7.125H19.875V9.375ZM24 3.75H0V1.5H24V3.75Z" fill="white"/>
</svg>
