<svg width="24" height="24" viewBox="0 0 24 24" fill="none" xmlns="http://www.w3.org/2000/svg">
<path fill-rule="evenodd" clip-rule="evenodd" d="M8.09473 17.25C7.60503 15.5186 6.01317 14.25 4.125 14.25C1.84683 14.25 -2.79892e-07 16.0968 -1.80309e-07 18.375C-8.07273e-08 20.6532 1.84683 22.5 4.125 22.5C6.01317 22.5 7.60503 21.2314 8.09473 19.5L13.5 19.5L13.5 13.125L15.9053 13.125C16.395 14.8564 17.9868 16.125 19.875 16.125C22.1532 16.125 24 14.2782 24 12C24 9.72182 22.1532 7.875 19.875 7.875C17.9868 7.875 16.395 9.14362 15.9053 10.875L13.5 10.875L13.5 4.5L8.09472 4.5C7.60503 2.76862 6.01316 1.5 4.125 1.5C1.84682 1.5 -8.37212e-07 3.34683 -7.3763e-07 5.625C-6.38047e-07 7.90318 1.84682 9.75 4.125 9.75C6.01316 9.75 7.60503 8.48138 8.09472 6.75L11.25 6.75L11.25 17.25L8.09473 17.25ZM4.125 16.5C5.16053 16.5 6 17.3395 6 18.375C6 19.4105 5.16053 20.25 4.125 20.25C3.08947 20.25 2.25 19.4105 2.25 18.375C2.25 17.3395 3.08947 16.5 4.125 16.5ZM4.125 3.75C5.16053 3.75 6 4.58947 6 5.625C6 6.66054 5.16053 7.5 4.125 7.5C3.08947 7.5 2.25 6.66054 2.25 5.625C2.25 4.58947 3.08947 3.75 4.125 3.75ZM19.875 10.125C20.9105 10.125 21.75 10.9645 21.75 12C21.75 13.0355 20.9105 13.875 19.875 13.875C18.8395 13.875 18 13.0355 18 12C18 10.9645 18.8395 10.125 19.875 10.125Z" fill="white"/>
</svg>
