<svg width="24" height="24" viewBox="0 0 24 24" fill="none" xmlns="http://www.w3.org/2000/svg">
<path fill-rule="evenodd" clip-rule="evenodd" d="M18.3906 3C20.718 3.00005 22.6614 4.77495 22.8721 7.09277L24 21L19.5 22.5L15 18H9L4.5 22.5L0 21L1.12793 7.09277C1.33864 4.77495 3.282 3.00005 5.60938 3H18.3906ZM5.60938 5.25C4.44585 5.25005 3.4747 6.13721 3.36914 7.2959L2.40234 19.4287L3.89258 19.9258L8.06836 15.75H15.9316L20.1074 19.9258L21.5977 19.4287L20.6309 7.2959C20.5253 6.13721 19.5541 5.25005 18.3906 5.25H5.60938ZM10.9658 10.125L7.59082 13.5L6 11.9092L7.78418 10.125L6 8.34082L7.59082 6.75L10.9658 10.125ZM18 11.25V13.5H12V11.25H18Z" fill="white"/>
</svg>
