<svg width="24" height="24" viewBox="0 0 24 24" fill="none" xmlns="http://www.w3.org/2000/svg">
<path d="M9.75 9.75C9.75 10.9926 8.74264 12 7.5 12C6.25736 12 5.25 10.9926 5.25 9.75C5.25 8.50736 6.25736 7.5 7.5 7.5C8.74264 7.5 9.75 8.50736 9.75 9.75Z" fill="white"/>
<path d="M19.125 8.0625C19.125 8.78737 18.5374 9.375 17.8125 9.375C17.0876 9.375 16.5 8.78737 16.5 8.0625C16.5 7.33763 17.0876 6.75 17.8125 6.75C18.5374 6.75 19.125 7.33763 19.125 8.0625Z" fill="white"/>
<path d="M16.3125 12.75C17.0374 12.75 17.625 12.1624 17.625 11.4375C17.625 10.7126 17.0374 10.125 16.3125 10.125C15.5876 10.125 15 10.7126 15 11.4375C15 12.1624 15.5876 12.75 16.3125 12.75Z" fill="white"/>
<path fill-rule="evenodd" clip-rule="evenodd" d="M0 19.5L4.5 21L9 16.5H15L19.5 21L24 19.5L22.8721 7.09259C22.6613 4.77474 20.7179 3 18.3905 3H5.60947C3.28205 3 1.33866 4.77473 1.12795 7.09259L0 19.5ZM8.06802 14.25L3.8923 18.4257L2.4021 17.929L3.36871 7.29629C3.47406 6.13737 4.44576 5.25 5.60947 5.25H18.3905C19.5542 5.25 20.5259 6.13737 20.6313 7.2963L21.5979 17.929L20.1077 18.4257L15.932 14.25H8.06802Z" fill="white"/>
</svg>
