<svg width="24" height="24" viewBox="0 0 24 24" fill="none" xmlns="http://www.w3.org/2000/svg">
<path d="M24 12C24 18.6274 18.6274 24 12 24C5.37258 24 -8.1423e-07 18.6274 -5.24537e-07 12C-2.34843e-07 5.37258 5.37258 -5.24537e-07 12 -5.24537e-07C18.6274 -5.24537e-07 24 5.37258 24 12ZM8.58691 21.1338C8.43802 20.8883 8.28463 20.6256 8.13281 20.3457C7.24233 18.7038 6.3439 16.4572 6.08008 13.7852C5.2722 13.4845 4.53609 13.1526 3.88574 12.8223C3.26339 12.5062 2.71671 12.1868 2.25293 11.8984C2.25258 11.9323 2.25 11.9661 2.25 12C2.25 16.1838 4.88584 19.7502 8.58691 21.1338ZM8.7002 2.82324C5.71454 3.89699 3.40555 6.3861 2.58008 9.48144C2.61635 9.50698 2.65324 9.53449 2.69238 9.56152C3.20234 9.91372 3.94893 10.3875 4.88184 10.8613C5.23842 11.0425 5.62062 11.2223 6.02539 11.3955C6.18261 8.39036 7.15879 5.77643 8.11914 3.88574C8.314 3.50214 8.51182 3.14823 8.7002 2.82324ZM15.7422 12.2275C15.7421 9.33235 14.8132 6.75592 13.8613 4.88184C13.3875 3.94911 12.9137 3.20227 12.5615 2.69238C12.4409 2.51769 12.3338 2.37193 12.2471 2.25586C12.1649 2.25382 12.0826 2.25 12 2.25C11.8977 2.25 11.7959 2.25371 11.6943 2.25684C11.6077 2.3728 11.5003 2.518 11.3799 2.69238C11.0277 3.20227 10.5539 3.94911 10.0801 4.88184C9.13492 6.74263 8.2143 9.29587 8.20117 12.166C9.43367 12.5126 10.7912 12.7422 12.2275 12.7422C13.4914 12.7422 14.6699 12.5651 15.7412 12.2871C15.7413 12.2674 15.7422 12.2473 15.7422 12.2275ZM15.5352 14.5918C14.5087 14.8078 13.4022 14.9414 12.2275 14.9414C10.8673 14.9414 9.57858 14.7627 8.38867 14.4834C8.7064 16.3955 9.38139 18.0338 10.0664 19.2969C10.5357 20.1622 11.0049 20.8428 11.3525 21.3027C11.4907 21.4855 11.6107 21.6324 11.7021 21.7422C11.8011 21.7452 11.9003 21.75 12 21.75C12.08 21.75 12.1597 21.7451 12.2393 21.7432C12.3308 21.6334 12.4504 21.4859 12.5889 21.3027C12.9365 20.8428 13.4057 20.1622 13.875 19.2969C14.5471 18.0577 15.2102 16.4575 15.5352 14.5918ZM21.4238 9.49414C20.5947 6.36804 18.2521 3.85972 15.2275 2.79883C15.4203 3.13033 15.6226 3.49259 15.8223 3.88574C16.7977 5.8061 17.7925 8.4724 17.9258 11.5371C18.4211 11.3253 18.8797 11.1012 19.2969 10.875C20.1624 10.4056 20.8428 9.93654 21.3027 9.58887C21.3454 9.55664 21.3851 9.52416 21.4238 9.49414ZM21.75 11.9639C21.3458 12.2314 20.8764 12.5208 20.3457 12.8086C19.6246 13.1997 18.7868 13.5922 17.8477 13.9326C17.5658 16.54 16.6827 18.7341 15.8086 20.3457C15.6507 20.6368 15.4915 20.9093 15.3369 21.1631C19.0782 19.8003 21.75 16.2125 21.75 12C21.75 11.988 21.75 11.9759 21.75 11.9639Z" fill="white"/>
</svg>
