<svg width="24" height="24" viewBox="0 0 24 24" fill="none" xmlns="http://www.w3.org/2000/svg">
<path fill-rule="evenodd" clip-rule="evenodd" d="M22.602 8.14797L8.25 22.5H1.5V15.75L15.852 1.39797C16.7471 0.502866 17.9612 0 19.227 0C21.8631 0 24 2.13693 24 4.77297C24 6.03884 23.4971 7.25287 22.602 8.14797ZM3.75 20.25V16.682L13.9205 6.51149L17.4885 10.0795L7.31802 20.25H3.75ZM19.0795 8.48851L21.011 6.55698C21.4842 6.08383 21.75 5.4421 21.75 4.77297C21.75 3.37957 20.6204 2.25 19.227 2.25C18.5579 2.25 17.9162 2.51581 17.443 2.98896L15.5115 4.9205L19.0795 8.48851Z" fill="white"/>
</svg>
