<svg width="24" height="24" viewBox="0 0 24 24" fill="none" xmlns="http://www.w3.org/2000/svg">
<path fill-rule="evenodd" clip-rule="evenodd" d="M16.5 9C18.9853 9 21 6.98528 21 4.5C21 2.01472 18.9853 0 16.5 0C14.0147 0 12 2.01472 12 4.5C12 4.97253 12.0728 5.42805 12.2079 5.85594L7.59859 8.73675C6.79167 7.9703 5.70076 7.5 4.5 7.5C2.01472 7.5 0 9.51472 0 12C0 14.4853 2.01472 16.5 4.5 16.5C5.70076 16.5 6.79167 16.0297 7.59859 15.2633L12.2079 18.1441C12.0728 18.572 12 19.0275 12 19.5C12 21.9853 14.0147 24 16.5 24C18.9853 24 21 21.9853 21 19.5C21 17.0147 18.9853 15 16.5 15C15.2993 15 14.2083 15.4703 13.4014 16.2367L8.79213 13.3559C8.92717 12.928 9 12.4725 9 12C9 11.5275 8.92717 11.072 8.79213 10.6441L13.4014 7.76328C14.2083 8.52971 15.2993 9 16.5 9ZM16.5 6.75C17.7426 6.75 18.75 5.74264 18.75 4.5C18.75 3.25736 17.7426 2.25 16.5 2.25C15.2574 2.25 14.25 3.25736 14.25 4.5C14.25 5.74264 15.2574 6.75 16.5 6.75ZM6.75 12C6.75 13.2426 5.74264 14.25 4.5 14.25C3.25736 14.25 2.25 13.2426 2.25 12C2.25 10.7574 3.25736 9.75 4.5 9.75C5.74264 9.75 6.75 10.7574 6.75 12ZM18.75 19.5C18.75 20.7426 17.7426 21.75 16.5 21.75C15.2574 21.75 14.25 20.7426 14.25 19.5C14.25 18.2574 15.2574 17.25 16.5 17.25C17.7426 17.25 18.75 18.2574 18.75 19.5Z" fill="white"/>
</svg>
