<svg width="24" height="24" viewBox="0 0 24 24" fill="none" xmlns="http://www.w3.org/2000/svg">
<g clip-path="url(#clip0_2_28)">
<path fill-rule="evenodd" clip-rule="evenodd" d="M13.5 1.5L15 2.625L13.9138 7.24138L22.5 1.875L24 3L16.4194 18.8503C15.9764 19.7767 15.3791 20.621 14.653 21.3471L14.4505 21.5495C12.8771 23.1229 10.7062 24 8.48532 24C3.88426 24 0.138523 20.3379 0.00378707 15.7695C-0.000777042 15.6162 -0.00124666 15.4614 0.00256649 15.3073C0.055676 13.1329 0.942267 11.0587 2.48348 9.51655L2.61778 9.38225C3.15341 8.84662 3.74792 8.38783 4.38476 8.01089L13.5 1.5ZM8.25 19.5C10.3211 19.5 12 17.8211 12 15.75C12 13.6789 10.3211 12 8.25 12C6.17893 12 4.5 13.6789 4.5 15.75C4.5 17.8211 6.17893 19.5 8.25 19.5Z" fill="black"/>
</g>
<defs>
<clipPath id="clip0_2_28">
<rect width="24" height="24" fill="white"/>
</clipPath>
</defs>
</svg>
