<svg width="24" height="24" viewBox="0 0 24 24" fill="none" xmlns="http://www.w3.org/2000/svg">
<path fill-rule="evenodd" clip-rule="evenodd" d="M12 24C18.6274 24 24 18.6274 24 12C24 5.37258 18.6274 0 12 0C5.37258 0 0 5.37258 0 12C0 18.6274 5.37258 24 12 24ZM8.25 10.5C9.49264 10.5 10.5 9.49264 10.5 8.25C10.5 7.00736 9.49264 6 8.25 6C7.00736 6 6 7.00736 6 8.25C6 9.49264 7.00736 10.5 8.25 10.5ZM18 8.25C18 9.49264 16.9926 10.5 15.75 10.5C14.5074 10.5 13.5 9.49264 13.5 8.25C13.5 7.00736 14.5074 6 15.75 6C16.9926 6 18 7.00736 18 8.25ZM12 15C10.3431 15 9 16.3431 9 18H6C6 14.6863 8.68629 12 12 12C15.3137 12 18 14.6863 18 18H15C15 16.3431 13.6569 15 12 15Z" fill="black"/>
</svg>
