<svg width="24" height="24" viewBox="0 0 24 24" fill="none" xmlns="http://www.w3.org/2000/svg">
<g opacity="0.3">
<path opacity="0.3" d="M17.5907 6.28819C17.0587 6.28768 16.5487 6.07629 16.1725 5.70045C15.7963 5.3246 15.5848 4.81499 15.5843 4.28346V1.5H6.6185C5.92403 1.5 5.25801 1.77565 4.76694 2.26629C4.27588 2.75693 4 3.42237 4 4.11624V19.8876C4.00103 20.5808 4.27736 21.2453 4.76831 21.7351C5.25927 22.2249 5.9247 22.5 6.6185 22.5H17.3815C18.0753 22.5 18.7407 22.2249 19.2317 21.7351C19.7226 21.2453 19.999 20.5808 20 19.8876V6.28819H17.5907Z" fill="#2E2E2E"/>
</g>
<path d="M7.625 8.5625H16.375V7.625H7.625V8.5625Z" fill="#2E2E2E"/>
<path d="M7.625 16.375H13.875V15.4375H7.625V16.375Z" fill="#2E2E2E"/>
<path d="M16.375 11.2188H7.625V10.2812H16.375V11.2188Z" fill="#2E2E2E"/>
<path d="M7.625 13.7188H16.375V12.7812H7.625V13.7188Z" fill="#2E2E2E"/>
<path d="M19.9993 6.2882H17.59C17.058 6.28768 16.548 6.07629 16.1718 5.70045C15.7957 5.3246 15.5841 4.81499 15.5836 4.28346V1.5L19.9993 6.2882Z" fill="#2E2E2E"/>
</svg>
