<svg width="24" height="24" viewBox="0 0 24 24" fill="none" xmlns="http://www.w3.org/2000/svg">
<g opacity="0.3">
<path opacity="0.3" d="M17.5907 6.28819C17.0587 6.28768 16.5487 6.07629 16.1725 5.70045C15.7963 5.3246 15.5848 4.81499 15.5843 4.28346V1.5H6.6185C5.92403 1.5 5.25801 1.77565 4.76694 2.26629C4.27588 2.75693 4 3.42237 4 4.11624V19.8876C4.00103 20.5808 4.27736 21.2453 4.76831 21.7351C5.25927 22.2249 5.9247 22.5 6.6185 22.5H17.3815C18.0753 22.5 18.7407 22.2249 19.2317 21.7351C19.7226 21.2453 19.999 20.5808 20 19.8876V6.28819H17.5907Z" fill="#0072FF"/>
</g>
<path d="M8.09258 8L9.69258 16H10.8121L12 9.56557L13.1879 16H14.3074L15.9074 8H15.1426L13.7547 14.9392L12.4736 8H11.5264L10.2453 14.9392L8.85743 8H8.09258Z" fill="#0072FF"/>
<path d="M19.9993 6.2882H17.59C17.058 6.28768 16.548 6.07629 16.1718 5.70045C15.7957 5.3246 15.5841 4.81499 15.5836 4.28346V1.5L19.9993 6.2882Z" fill="#0072FF"/>
</svg>
