<svg width="24" height="24" viewBox="0 0 24 24" fill="none" xmlns="http://www.w3.org/2000/svg">
<g opacity="0.3">
<path opacity="0.3" d="M17.5907 6.28819C17.0587 6.28768 16.5487 6.07629 16.1725 5.70045C15.7963 5.3246 15.5848 4.81499 15.5843 4.28346V1.5H6.6185C5.92403 1.5 5.25801 1.77565 4.76694 2.26629C4.27588 2.75693 4 3.42237 4 4.11624V19.8876C4.00103 20.5808 4.27736 21.2453 4.76831 21.7351C5.25927 22.2249 5.9247 22.5 6.6185 22.5H17.3815C18.0753 22.5 18.7407 22.2249 19.2317 21.7351C19.7226 21.2453 19.999 20.5808 20 19.8876V6.28819H17.5907Z" fill="#FF3E4C"/>
</g>
<path d="M19.9993 6.2882H17.59C17.058 6.28768 16.548 6.07629 16.1718 5.70045C15.7957 5.3246 15.5841 4.81499 15.5836 4.28346V1.5L19.9993 6.2882Z" fill="#FF3E4C"/>
<path d="M10.6612 7.00247C10.1732 6.99394 9.75199 7.47889 9.85522 7.96337C9.92465 8.70371 10.4024 9.30447 10.7753 9.9158C10.8172 10.1434 10.697 10.3651 10.689 10.5911C10.4459 11.9178 10.0751 13.2376 9.50453 14.4553C8.79857 14.78 7.9992 15.1007 7.58628 15.8006C7.32421 16.2861 7.69321 16.9415 8.23485 16.9927C8.73737 17.0614 9.11034 16.6311 9.38504 16.2706C9.67185 15.8829 9.86058 15.4211 10.0992 15.0044C11.5436 14.4232 13.0628 14.0171 14.6139 13.8629C15.241 14.3114 15.9055 14.8404 16.7096 14.8724C17.177 14.8654 17.5553 14.4121 17.5039 13.9516C17.4738 13.5324 17.101 13.2384 16.7149 13.1596C16.092 12.9722 15.4249 13.0748 14.7913 13.0794C13.5721 12.106 12.4465 10.9861 11.5601 9.70462C11.6259 8.9256 11.758 8.06387 11.352 7.35515C11.1979 7.13164 10.9366 6.9785 10.6612 7.00247ZM10.6844 7.70995C10.8217 7.73637 10.8308 7.94067 10.8693 8.04996C10.9054 8.27263 10.9015 8.49983 10.8988 8.7247C10.7354 8.41939 10.523 8.10045 10.5608 7.73846C10.6039 7.73678 10.6421 7.71495 10.6844 7.70995ZM11.4407 10.7479C12.1674 11.6505 12.9745 12.4818 13.8554 13.2357C12.694 13.4127 11.5401 13.7091 10.4351 14.1089C10.8589 13.0022 11.1816 11.8588 11.3943 10.6919C11.4097 10.7106 11.4252 10.7292 11.4407 10.7479ZM15.9733 13.7827C16.2551 13.8098 16.5803 13.7935 16.8057 13.9875C16.8269 14.1626 16.6125 14.1882 16.4983 14.1248C16.2601 14.0453 16.0245 13.9454 15.8223 13.7932C15.8727 13.7901 15.9229 13.7836 15.9733 13.7827ZM8.93306 15.6242C8.79909 15.8732 8.60409 16.1079 8.40069 16.2842C8.333 16.3937 8.14728 16.1912 8.23273 16.1057C8.4092 15.8298 8.71727 15.6835 8.9901 15.5186C8.97109 15.5538 8.95208 15.589 8.93306 15.6242Z" fill="#FF3E4C"/>
</svg>
