<svg width="24" height="24" viewBox="0 0 24 24" fill="none" xmlns="http://www.w3.org/2000/svg">
<g opacity="0.3">
<path opacity="0.3" d="M17.5907 6.28819C17.0587 6.28768 16.5487 6.07629 16.1725 5.70045C15.7963 5.3246 15.5848 4.81499 15.5843 4.28346V1.5H6.6185C5.92403 1.5 5.25801 1.77565 4.76694 2.26629C4.27588 2.75693 4 3.42237 4 4.11624V19.8876C4.00103 20.5808 4.27736 21.2453 4.76831 21.7351C5.25927 22.2249 5.9247 22.5 6.6185 22.5H17.3815C18.0753 22.5 18.7407 22.2249 19.2317 21.7351C19.7226 21.2453 19.999 20.5808 20 19.8876V6.28819H17.5907Z" fill="#2E2E2E"/>
</g>
<path d="M19.9993 6.2882H17.59C17.058 6.28768 16.548 6.07629 16.1718 5.70045C15.7957 5.3246 15.5841 4.81499 15.5836 4.28346V1.5L19.9993 6.2882Z" fill="#2E2E2E"/>
<path d="M10.5938 11.0625C11.0252 11.0625 11.375 10.7127 11.375 10.2812C11.375 9.84978 11.0252 9.5 10.5938 9.5C10.1623 9.5 9.8125 9.84978 9.8125 10.2812C9.8125 10.7127 10.1623 11.0625 10.5938 11.0625Z" fill="#2E2E2E"/>
<path fill-rule="evenodd" clip-rule="evenodd" d="M9.625 7.625C8.52043 7.625 7.625 8.52043 7.625 9.625V14.375C7.625 15.4796 8.52043 16.375 9.625 16.375H14.375C15.4796 16.375 16.375 15.4796 16.375 14.375V9.625C16.375 8.52043 15.4796 7.625 14.375 7.625H9.625ZM15.4375 9.5625C15.4375 9.01022 14.9898 8.5625 14.4375 8.5625H9.5625C9.01022 8.5625 8.5625 9.01022 8.5625 9.5625V13.4837C8.5625 14.4334 9.76209 14.8483 10.3488 14.1015L11.3107 12.8773C11.6773 12.4107 12.3693 12.3693 12.7889 12.7889C13.1798 13.1798 13.8151 13.1748 14.1997 12.7777L15.1557 11.7908C15.3365 11.6043 15.4375 11.3548 15.4375 11.0951V9.5625Z" fill="#2E2E2E"/>
</svg>
