<svg width="70" height="40" viewBox="0 0 70 40" fill="none" xmlns="http://www.w3.org/2000/svg">
<path fill-rule="evenodd" clip-rule="evenodd" d="M55 13.9762C57.1117 14.5592 58.7741 16.2216 59.3571 18.3333H70V21.6667H59.3571C58.7741 23.7783 57.1116 25.4399 55 26.0229V35H15V26.0229C12.8884 25.4399 11.2259 23.7783 10.6429 21.6667H0V18.3333H10.6429C11.2259 16.2216 12.8883 14.5592 15 13.9762V5H55V13.9762ZM18.75 14.1064C21.1774 14.9645 22.9167 17.2788 22.9167 20C22.9167 22.7211 21.1772 25.0346 18.75 25.8927V31.25H51.25V25.8927C48.8228 25.0346 47.0833 22.7211 47.0833 20C47.0833 17.2788 48.8226 14.9645 51.25 14.1064V8.75H18.75V14.1064ZM16.6667 17.5C16.0289 17.5 15.4481 17.7401 15.0065 18.1331C14.936 18.1959 14.8701 18.2631 14.8071 18.3333C14.4102 18.7759 14.1667 19.3588 14.1667 20C14.1667 20.6412 14.4102 21.2241 14.8071 21.6667C14.8679 21.7345 14.9322 21.7987 15 21.8595C15.4425 22.2564 16.0254 22.5 16.6667 22.5C17.5369 22.5 18.3023 22.0547 18.75 21.3802C19.0126 20.9846 19.1667 20.5105 19.1667 20C19.1667 19.4893 19.0129 19.0147 18.75 18.619C18.3022 17.9448 17.5367 17.5 16.6667 17.5ZM53.3333 17.5C52.4633 17.5 51.6978 17.9448 51.25 18.619C50.9871 19.0147 50.8333 19.4893 50.8333 20C50.8333 20.5105 50.9874 20.9846 51.25 21.3802C51.6977 22.0547 52.4631 22.5 53.3333 22.5C53.9746 22.5 54.5575 22.2564 55 21.8595C55.0678 21.7987 55.1321 21.7345 55.1929 21.6667C55.5898 21.2241 55.8333 20.6412 55.8333 20C55.8333 19.3588 55.5898 18.7759 55.1929 18.3333C55.1297 18.263 55.0633 18.196 54.9927 18.1331C54.5511 17.7403 53.9708 17.5 53.3333 17.5Z" fill="black"/>
</svg>
