<svg width="24" height="24" viewBox="0 0 24 24" fill="none" xmlns="http://www.w3.org/2000/svg">
<path d="M14.2893 0.218108L12.2541 2.25325C12.1697 2.25109 12.085 2.25 12 2.25C6.61522 2.25 2.25 6.61522 2.25 12C2.25 17.3848 6.61522 21.75 12 21.75C17.3848 21.75 21.75 17.3848 21.75 12C21.75 11.915 21.7489 11.8303 21.7468 11.7459L23.7819 9.71075C23.925 10.4518 24 11.2171 24 12C24 18.6274 18.6274 24 12 24C5.37258 24 0 18.6274 0 12C0 5.37258 5.37258 0 12 0C12.7829 0 13.5482 0.0749648 14.2893 0.218108Z" fill="white"/>
<path d="M18.7088 12.75L16.4378 12.75C16.0807 14.8783 14.2297 16.5 12 16.5C9.51472 16.5 7.5 14.4853 7.5 12C7.5 9.77025 9.12172 7.91928 11.25 7.56222L11.25 5.2912C7.87504 5.66428 5.25 8.52559 5.25 12C5.25 15.7279 8.27208 18.75 12 18.75C15.4744 18.75 18.3357 16.125 18.7088 12.75Z" fill="white"/>
<path fill-rule="evenodd" clip-rule="evenodd" d="M19.5 9.75H15.841L12.7955 12.7955L11.2045 11.2045L14.25 8.15901V4.5L18.75 0L20.25 3.75L24 5.25L19.5 9.75ZM18.5191 5.48095L17.9282 4.00379L16.5 5.43198V7.5H18.568L19.9962 6.07181L18.5191 5.48095Z" fill="white"/>
</svg>
