<svg width="24" height="24" viewBox="0 0 24 24" fill="none" xmlns="http://www.w3.org/2000/svg">
<path fill-rule="evenodd" clip-rule="evenodd" d="M22.5 4.125C22.5 6.01317 21.2314 7.60503 19.5 8.09473V13.5H6.75V15.9053C8.48138 16.395 9.75 17.9868 9.75 19.875C9.75 22.1532 7.90317 24 5.625 24C3.34683 24 1.5 22.1532 1.5 19.875C1.5 17.9868 2.76862 16.395 4.5 15.9053V8.09473C2.76862 7.60503 1.5 6.01317 1.5 4.125C1.5 1.84683 3.34683 0 5.625 0C7.90317 0 9.75 1.84683 9.75 4.125C9.75 6.01317 8.48138 7.60503 6.75 8.09473V11.25H17.25V8.09473C15.5186 7.60503 14.25 6.01317 14.25 4.125C14.25 1.84683 16.0968 0 18.375 0C20.6532 0 22.5 1.84683 22.5 4.125ZM18.375 6C19.4105 6 20.25 5.16053 20.25 4.125C20.25 3.08947 19.4105 2.25 18.375 2.25C17.3395 2.25 16.5 3.08947 16.5 4.125C16.5 5.16053 17.3395 6 18.375 6ZM7.5 19.875C7.5 20.9105 6.66053 21.75 5.625 21.75C4.58947 21.75 3.75 20.9105 3.75 19.875C3.75 18.8395 4.58947 18 5.625 18C6.66053 18 7.5 18.8395 7.5 19.875ZM7.5 4.125C7.5 5.16053 6.66053 6 5.625 6C4.58947 6 3.75 5.16053 3.75 4.125C3.75 3.08947 4.58947 2.25 5.625 2.25C6.66053 2.25 7.5 3.08947 7.5 4.125Z" fill="white"/>
</svg>
