<svg width="24" height="24" viewBox="0 0 24 24" fill="none" xmlns="http://www.w3.org/2000/svg">
<path fill-rule="evenodd" clip-rule="evenodd" d="M15.9053 6.75C16.395 8.48138 17.9868 9.75 19.875 9.75C22.1532 9.75 24 7.90318 24 5.625C24 3.34683 22.1532 1.5 19.875 1.5C17.9868 1.5 16.395 2.76862 15.9053 4.5L10.5 4.5L10.5 10.875L8.09472 10.875C7.60503 9.14362 6.01317 7.875 4.125 7.875C1.84682 7.875 -3.59387e-07 9.72182 -4.5897e-07 12C-5.58552e-07 14.2782 1.84682 16.125 4.125 16.125C6.01317 16.125 7.60503 14.8564 8.09472 13.125L10.5 13.125L10.5 19.5L15.9053 19.5C16.395 21.2314 17.9868 22.5 19.875 22.5C22.1532 22.5 24 20.6532 24 18.375C24 16.0968 22.1532 14.25 19.875 14.25C17.9868 14.25 16.395 15.5186 15.9053 17.25L12.75 17.25L12.75 6.75L15.9053 6.75ZM19.875 7.5C18.8395 7.5 18 6.66053 18 5.625C18 4.58947 18.8395 3.75 19.875 3.75C20.9105 3.75 21.75 4.58947 21.75 5.625C21.75 6.66053 20.9105 7.5 19.875 7.5ZM19.875 20.25C18.8395 20.25 18 19.4105 18 18.375C18 17.3395 18.8395 16.5 19.875 16.5C20.9105 16.5 21.75 17.3395 21.75 18.375C21.75 19.4105 20.9105 20.25 19.875 20.25ZM4.125 13.875C3.08947 13.875 2.25 13.0355 2.25 12C2.25 10.9645 3.08947 10.125 4.125 10.125C5.16053 10.125 6 10.9645 6 12C6 13.0355 5.16053 13.875 4.125 13.875Z" fill="white"/>
</svg>
