<svg width="24" height="24" viewBox="0 0 24 24" fill="none" xmlns="http://www.w3.org/2000/svg">
<path fill-rule="evenodd" clip-rule="evenodd" d="M6.375 0H8.625V3.75H15V6H12.9839C12.5692 8.72812 11.2638 11.1636 9.3736 13.0005C10.7255 13.7448 12.2657 14.1893 13.9046 14.2442L15.6953 9H18.8046L23.9266 24H21.549L20.2685 20.25H14.2314L12.951 24H10.5734L13.1508 16.4519C11.0783 16.2694 9.1525 15.5762 7.5 14.4987C5.55875 15.7644 3.24028 16.5 0.75 16.5H0V14.25H0.75C2.51789 14.25 4.17996 13.7969 5.62641 13.0005C4.46306 11.87 3.52122 10.5127 2.87224 9H5.37373C5.92828 10.0076 6.64941 10.9106 7.5 11.6719C9.12887 10.214 10.283 8.23652 10.7017 6H0V3.75H6.375V0ZM19.5002 18L17.25 11.41L14.9997 18H19.5002Z" fill="white"/>
</svg>
