<svg width="24" height="24" viewBox="0 0 24 24" fill="none" xmlns="http://www.w3.org/2000/svg">
<path fill-rule="evenodd" clip-rule="evenodd" d="M7.5 0H16.5V5.37868L12 9.87868L7.5 5.37868V0ZM9.75 4.4467L12 6.6967L14.25 4.4467V2.25H9.75V4.4467Z" fill="white"/>
<path fill-rule="evenodd" clip-rule="evenodd" d="M0 7.5H5.37868L9.87868 12L5.37868 16.5H0V7.5ZM2.25 14.25H4.4467L6.6967 12L4.4467 9.75H2.25V14.25Z" fill="white"/>
<path fill-rule="evenodd" clip-rule="evenodd" d="M7.5 24V18.6213L12 14.1213L16.5 18.6213V24H7.5ZM14.25 21.75V19.5533L12 17.3033L9.75 19.5533V21.75H14.25Z" fill="white"/>
<path fill-rule="evenodd" clip-rule="evenodd" d="M24 16.5H18.6213L14.1213 12L18.6213 7.5H24V16.5ZM21.75 9.75H19.5533L17.3033 12L19.5533 14.25H21.75V9.75Z" fill="white"/>
</svg>
