<svg width="24" height="24" viewBox="0 0 24 24" fill="none" xmlns="http://www.w3.org/2000/svg">
<path fill-rule="evenodd" clip-rule="evenodd" d="M13.125 8.85823C15.0659 8.35868 16.5 6.59682 16.5 4.5C16.5 2.01472 14.4853 0 12 0C9.51472 0 7.5 2.01472 7.5 4.5C7.5 6.59682 8.93412 8.35868 10.875 8.85823V12.75H6L1.5 17.25V22.5H22.5V17.25L18 12.75H13.125V8.85823ZM12 6.75C13.2426 6.75 14.25 5.74264 14.25 4.5C14.25 3.25736 13.2426 2.25 12 2.25C10.7574 2.25 9.75 3.25736 9.75 4.5C9.75 5.74264 10.7574 6.75 12 6.75ZM10.875 15V18H13.125V15H17.068L20.25 18.182V20.25H3.75V18.182L6.93198 15H10.875Z" fill="white"/>
</svg>
