<svg width="24" height="24" viewBox="0 0 24 24" fill="none" xmlns="http://www.w3.org/2000/svg">
<path d="M12 7.5C12.8284 7.5 13.5 6.82843 13.5 6C13.5 5.17157 12.8284 4.5 12 4.5C11.1716 4.5 10.5 5.17157 10.5 6C10.5 6.82843 11.1716 7.5 12 7.5Z" fill="white"/>
<path fill-rule="evenodd" clip-rule="evenodd" d="M5.25 0H24V18.75H5.25V0ZM7.5 2.25H21.75V6.75L21.7045 6.7045L16.5 11.909L13.5 8.90901L7.5 14.909V2.25ZM21.75 9.84099V16.5H9.09099L13.5 12.091L16.5 15.091L21.75 9.84099Z" fill="white"/>
<path d="M0 6V24H18V21.75H2.25V6H0Z" fill="white"/>
</svg>
