<svg width="24" height="24" viewBox="0 0 24 24" fill="none" xmlns="http://www.w3.org/2000/svg">
<path fill-rule="evenodd" clip-rule="evenodd" d="M24 8V24.001H8V16H10.2002V21.8008H21.7998V10.2002H16V8H24Z" fill="white"/>
<path d="M4.75 7.5C5.57843 7.5 6.25 6.82843 6.25 6C6.25 5.17157 5.57843 4.5 4.75 4.5C3.92157 4.5 3.25 5.17157 3.25 6C3.25 6.82843 3.92157 7.5 4.75 7.5Z" fill="white"/>
<path fill-rule="evenodd" clip-rule="evenodd" d="M0 0H16.75V16.75H0V0ZM2.25 2.25H14.5V6.75L14.4545 6.7045L11.25 9.90901L8.25 6.90901L2.25 12.909V2.25ZM14.5 9.84099V14.5H3.84099L8.25 10.091L11.25 13.091L14.5 9.84099Z" fill="white"/>
</svg>
