<svg width="24" height="24" viewBox="0 0 24 24" fill="none" xmlns="http://www.w3.org/2000/svg">
<path fill-rule="evenodd" clip-rule="evenodd" d="M23.999 7.99967V24H7.99967V15.9993H10.1998V21.7999H21.7989V10.1998H15.9993V7.99967H23.999Z" fill="white"/>
<path d="M4.74981 7.49969C5.5782 7.49969 6.24975 6.82815 6.24975 5.99976C6.24975 5.17136 5.5782 4.49982 4.74981 4.49982C3.92141 4.49982 3.24987 5.17136 3.24987 5.99976C3.24987 6.82815 3.92141 7.49969 4.74981 7.49969Z" fill="white"/>
<path fill-rule="evenodd" clip-rule="evenodd" d="M0 0H16.7493V16.7493H0V0ZM2.24991 2.24991H14.4994V6.74972L14.4539 6.70423L11.2495 9.90861L8.24966 6.90873L2.24991 12.9085V2.24991ZM14.4994 9.84059V14.4994H3.84083L8.24966 10.0906L11.2495 13.0905L14.4994 9.84059Z" fill="white"/>
</svg>
