<svg width="24" height="24" viewBox="0 0 24 24" fill="none" xmlns="http://www.w3.org/2000/svg">
<path d="M10.5 9C10.5 9.82843 9.82843 10.5 9 10.5C8.17157 10.5 7.5 9.82843 7.5 9C7.5 8.17157 8.17157 7.5 9 7.5C9.82843 7.5 10.5 8.17157 10.5 9Z" fill="white"/>
<path d="M15 10.5C15.8284 10.5 16.5 9.82843 16.5 9C16.5 8.17157 15.8284 7.5 15 7.5C14.1716 7.5 13.5 8.17157 13.5 9C13.5 9.82843 14.1716 10.5 15 10.5Z" fill="white"/>
<path fill-rule="evenodd" clip-rule="evenodd" d="M18 24H21V9C21 4.02944 16.9706 0 12 0C7.02944 0 3 4.02944 3 9V24H6L9 21L12 24L15 21L18 24ZM12 20.818L15 17.818L18.75 21.568V9C18.75 5.27208 15.7279 2.25 12 2.25C8.27208 2.25 5.25 5.27208 5.25 9V21.568L9 17.818L12 20.818Z" fill="white"/>
</svg>
