<svg width="24" height="24" viewBox="0 0 24 24" fill="none" xmlns="http://www.w3.org/2000/svg">
<path d="M8.25 10.5C9.07843 10.5 9.75 9.82843 9.75 9C9.75 8.17157 9.07843 7.5 8.25 7.5C7.42157 7.5 6.75 8.17157 6.75 9C6.75 9.82843 7.42157 10.5 8.25 10.5Z" fill="white"/>
<path d="M17.25 9C17.25 9.82843 16.5784 10.5 15.75 10.5C14.9216 10.5 14.25 9.82843 14.25 9C14.25 8.17157 14.9216 7.5 15.75 7.5C16.5784 7.5 17.25 8.17157 17.25 9Z" fill="white"/>
<path fill-rule="evenodd" clip-rule="evenodd" d="M6 12.75C6 13.268 6.06563 13.7706 6.18903 14.25C6.85509 16.8378 9.20424 18.75 12 18.75C14.7958 18.75 17.1449 16.8378 17.811 14.25C17.9344 13.7706 18 13.268 18 12.75V12H6V12.75ZM15.438 14.25C14.8593 15.5744 13.5377 16.5 12 16.5C10.4623 16.5 9.1407 15.5744 8.56203 14.25H15.438Z" fill="white"/>
<path fill-rule="evenodd" clip-rule="evenodd" d="M24 12C24 18.6274 18.6274 24 12 24C5.37258 24 0 18.6274 0 12C0 5.37258 5.37258 0 12 0C18.6274 0 24 5.37258 24 12ZM21.75 12C21.75 17.3848 17.3848 21.75 12 21.75C6.61522 21.75 2.25 17.3848 2.25 12C2.25 6.61522 6.61522 2.25 12 2.25C17.3848 2.25 21.75 6.61522 21.75 12Z" fill="white"/>
</svg>
