<svg width="24" height="24" viewBox="0 0 24 24" fill="none" xmlns="http://www.w3.org/2000/svg">
<path fill-rule="evenodd" clip-rule="evenodd" d="M6.75 3.75V1.5H4.5V6.75L6.875 9.125L6.45 11.25H2.25V9H0V22.5H10.5V18.75C10.5 17.9216 11.1716 17.25 12 17.25C12.8284 17.25 13.5 17.9216 13.5 18.75V22.5H24V9H21.75V11.25H17.55L17.125 9.125L19.5 6.75V1.5H17.25V3.75H13.125V1.5H10.875V3.75H6.75ZM21.75 13.5V20.25H15.75V18.75C15.75 16.6789 14.0711 15 12 15C9.92893 15 8.25 16.6789 8.25 18.75V20.25H2.25V13.5H8.29456L9.31746 8.38548L6.93198 6H17.068L14.6825 8.38548L15.7054 13.5H21.75Z" fill="white"/>
</svg>
