<svg width="24" height="24" viewBox="0 0 24 24" fill="none" xmlns="http://www.w3.org/2000/svg">
<path fill-rule="evenodd" clip-rule="evenodd" d="M5.60437 1.5444L0 10.1665V15.75C0 18.6495 2.35051 21 5.25 21C8.1495 21 10.5 18.6495 10.5 15.75V14.25H13.5V15.75C13.5 18.6495 15.8505 21 18.75 21C21.6495 21 24 18.6495 24 15.75V10.1665L18.3956 1.5444L14.4969 3.49378L15.5031 5.50624L17.6044 4.45561L21.5332 10.5H13.5V12H10.5V10.5H2.46677L6.39563 4.45561L8.49689 5.50624L9.50311 3.49378L5.60437 1.5444ZM8.25 15.6172L2.51559 12.75H8.25V15.6172ZM2.25 15.1328L7.48559 17.7506C6.93629 18.364 6.13822 18.75 5.25 18.75C3.59315 18.75 2.25 17.4069 2.25 15.75V15.1328ZM16.0156 12.75H21.75V15.6172L16.0156 12.75ZM15.75 15.1328V15.75C15.75 17.4069 17.0931 18.75 18.75 18.75C19.6382 18.75 20.4363 18.364 20.9856 17.7506L15.75 15.1328Z" fill="white"/>
</svg>
