<svg width="24" height="24" viewBox="0 0 24 24" fill="none" xmlns="http://www.w3.org/2000/svg">
<path d="M18.375 6.375V10.5H16.125V6.375H12V4.125H16.125V0H18.375V4.125H22.5V6.375H18.375Z" fill="white"/>
<path fill-rule="evenodd" clip-rule="evenodd" d="M5.25 12.75L0 15V16.5L5.25 18.75L7.5 24H9L11.25 18.75L16.5 16.5V15L11.25 12.75L9 7.5H7.5L5.25 12.75ZM8.25 11.4618L6.96355 14.4635L3.96183 15.75L6.96355 17.0364L8.25 20.0382L9.53645 17.0364L12.5382 15.75L9.53645 14.4635L8.25 11.4618Z" fill="white"/>
<path d="M3.75 0.75L1.5 3L3.75 5.25L6 3L3.75 0.75Z" fill="white"/>
<path d="M18 21.75L20.25 19.5L22.5 21.75L20.25 24L18 21.75Z" fill="white"/>
<path d="M22.5 13.5C23.3284 13.5 24 12.8284 24 12C24 11.1716 23.3284 10.5 22.5 10.5C21.6716 10.5 21 11.1716 21 12C21 12.8284 21.6716 13.5 22.5 13.5Z" fill="white"/>
</svg>
