<svg width="24" height="24" viewBox="0 0 24 24" fill="none" xmlns="http://www.w3.org/2000/svg">
<path fill-rule="evenodd" clip-rule="evenodd" d="M10.8631 3.36313C9.66973 2.17018 8.0514 1.5 6.36396 1.5C2.84924 1.5 0 4.34924 0 7.86396C0 9.55179 0.670485 11.1705 1.86396 12.364L12 22.5L22.136 12.364C23.3295 11.1705 24 9.55179 24 7.86396C24 4.34924 21.1508 1.5 17.636 1.5C15.9489 1.5 14.3308 2.16996 13.1374 3.36256C13.137 3.36303 13.1365 3.36349 13.136 3.36396L12 4.5L10.8631 3.36313C10.8634 3.36341 10.8629 3.36285 10.8631 3.36313ZM12 19.318L20.545 10.773C21.3166 10.0015 21.75 8.95505 21.75 7.86396C21.75 5.59188 19.9081 3.75 17.636 3.75C16.5449 3.75 15.4985 4.18343 14.727 4.95495L12 7.68198L9.27297 4.95495C8.50145 4.18343 7.45505 3.75 6.36396 3.75C4.09188 3.75 2.25 5.59188 2.25 7.86396C2.25 8.95505 2.68343 10.0015 3.45495 10.773L12 19.318Z" fill="white"/>
</svg>
