<svg width="24" height="24" viewBox="0 0 24 24" fill="none" xmlns="http://www.w3.org/2000/svg">
<path d="M17.25 8.25C17.25 9.07843 16.5784 9.75 15.75 9.75C14.9216 9.75 14.25 9.07843 14.25 8.25C14.25 7.42157 14.9216 6.75 15.75 6.75C16.5784 6.75 17.25 7.42157 17.25 8.25Z" fill="white"/>
<path fill-rule="evenodd" clip-rule="evenodd" d="M18.75 20.25L15 24L0 9L3.75 5.25H9.75L11.4853 3.51472C13.7357 1.26428 16.788 0 19.9706 0H24V4.02944C24 7.21204 22.7357 10.2643 20.4853 12.5147L18.75 14.25V20.25ZM16.5 13.318L18.8943 10.9237C20.7228 9.09525 21.75 6.6153 21.75 4.02944V2.25H19.9706C17.3847 2.25 14.9048 3.27723 13.0763 5.10571L10.682 7.5H4.68198L3.18198 9L15 20.818L16.5 19.318V13.318Z" fill="white"/>
<path d="M6.30332 19.5459L8.02229 21.2648L1.5 24L0 22.5L2.73515 15.9777L4.45413 17.6967L3.1186 20.8814L6.30332 19.5459Z" fill="white"/>
</svg>
