<svg width="24" height="24" viewBox="0 0 24 24" fill="none" xmlns="http://www.w3.org/2000/svg">
<path d="M9.7308 6.8061L16.4166 2.06993L21.4254 7.25613C24.6886 10.6356 24.8725 16.053 21.8475 19.6623C19.5421 22.413 15.8757 23.4769 12.5263 22.3658L11.3744 21.9836L4.35807 19.7097L4.10544 17.7491C3.88927 16.0749 5.05999 14.5501 6.68369 14.3911L7.72954 14.2888L0 5.67239L4.31856 1.2L9.7308 6.8061ZM2.95563 5.72837L10.759 14.4255L10.0791 16.2741L6.88433 16.5864C6.46331 16.6275 6.15981 17.0233 6.21586 17.4574L6.28863 18.0237L12.0107 19.8787L12.018 19.8809L13.1761 20.2653C15.7143 21.1072 18.4932 20.302 20.2403 18.2175C22.5326 15.4822 22.3919 11.3772 19.919 8.81619L16.1598 4.92196L9.47506 9.65921L4.31752 4.31797L2.95563 5.72837Z" fill="white"/>
</svg>
