<svg width="24" height="24" viewBox="0 0 24 24" fill="none" xmlns="http://www.w3.org/2000/svg">
<path d="M13.125 16.5V18.75H10.875V16.5H13.125Z" fill="white"/>
<path d="M9.75 9.75C9.75 8.50736 10.7574 7.5 12 7.5C13.2426 7.5 14.25 8.50736 14.25 9.75C14.25 10.9926 13.2426 12 12 12H10.875V14.25H12C14.4853 14.25 16.5 12.2353 16.5 9.75C16.5 7.26472 14.4853 5.25 12 5.25C9.51472 5.25 7.5 7.26472 7.5 9.75V10.5H9.75V9.75Z" fill="white"/>
<path fill-rule="evenodd" clip-rule="evenodd" d="M12 24C18.6274 24 24 18.6274 24 12C24 5.37258 18.6274 0 12 0C5.37258 0 0 5.37258 0 12C0 18.6274 5.37258 24 12 24ZM12 21.75C17.3848 21.75 21.75 17.3848 21.75 12C21.75 6.61522 17.3848 2.25 12 2.25C6.61522 2.25 2.25 6.61522 2.25 12C2.25 17.3848 6.61522 21.75 12 21.75Z" fill="white"/>
</svg>
