<svg width="24" height="24" viewBox="0 0 24 24" fill="none" xmlns="http://www.w3.org/2000/svg">
<path d="M12 3.75H3.75V17.1592L9 11.9092L12 14.9092L14.9092 12H18.0908L12 18.0908L9 15.0908L3.84082 20.25H20.25V12H22.5V22.5H1.5V1.5H12V3.75Z" fill="white"/>
<path d="M20.4287 3.57129L24 4.28613V5.71387L20.4287 6.42871L19.7139 10H18.2861L17.5713 6.42871L14 5.71387V4.28613L17.5713 3.57129L18.2861 0H19.7139L20.4287 3.57129Z" fill="white"/>
<path d="M8.625 6C9.66053 6 10.5 6.83947 10.5 7.875C10.5 8.91053 9.66053 9.75 8.625 9.75C7.58947 9.75 6.75 8.91053 6.75 7.875C6.75 6.83947 7.58947 6 8.625 6Z" fill="white"/>
</svg>
