<svg width="24" height="24" viewBox="0 0 24 24" fill="none" xmlns="http://www.w3.org/2000/svg">
<path d="M12 3.75H3.75V17.1592L9 11.9092L12 14.9092L14.9092 12H18.0908L12 18.0908L9 15.0908L3.84082 20.25H20.25V12H22.5V22.5H1.5V1.5H12V3.75ZM8.625 6C9.66053 6 10.5 6.83947 10.5 7.875C10.5 8.91053 9.66053 9.75 8.625 9.75C7.58947 9.75 6.75 8.91053 6.75 7.875C6.75 6.83947 7.58947 6 8.625 6Z" fill="white"/>
<path d="M14 4.28571L17.5714 3.57143L18.2857 0H19.7143L20.4286 3.57143L24 4.28571V5.71429L20.4286 6.42857L19.7143 10H18.2857L17.5714 6.42857L14 5.71429V4.28571Z" fill="white"/>
</svg>
