<svg width="24" height="24" viewBox="0 0 24 24" fill="none" xmlns="http://www.w3.org/2000/svg">
<path d="M21.4999 12C21.4999 6.75334 17.2467 2.50005 12 2.50005C6.75328 2.50005 2.49999 6.75334 2.49999 12C2.49999 17.2467 6.75328 21.5 12 21.5V24C5.37257 24 0 18.6274 0 12C0 5.37263 5.37257 6.1035e-05 12 6.1035e-05C18.6274 6.1035e-05 23.9999 5.37263 23.9999 12C23.9999 18.6274 18.6274 24 12 24V21.5C17.2467 21.5 21.4999 17.2467 21.4999 12Z" fill="white"/>
<path d="M4.10058 17.2783C3.0567 15.716 2.49999 13.8789 2.49999 12L0 12C1.03743e-07 14.3733 0.703882 16.6936 2.02246 18.6669L2.27636 19.0312C3.57677 20.8296 5.35246 22.2353 7.40818 23.0869L7.82127 23.249C9.90155 24.0218 12.1585 24.2035 14.3408 23.7695C16.6686 23.3064 18.8071 22.1635 20.4853 20.4853L20.7939 20.165C22.3038 18.5388 23.3354 16.5229 23.7695 14.3408L23.8476 13.9033C24.1761 11.8583 23.9702 9.76285 23.249 7.82127L23.0869 7.40818C22.2353 5.35246 20.8296 3.57677 19.0312 2.27636L18.6669 2.02246C16.6936 0.703882 14.3733 -1.03743e-07 12 0L12 2.49999C13.8789 2.49999 15.716 3.0567 17.2783 4.10058C18.8405 5.14444 20.0583 6.62838 20.7773 8.36424C21.4963 10.1001 21.6839 12.0107 21.3173 13.8535C20.9507 15.6962 20.0463 17.3892 18.7177 18.7177C17.3892 20.0463 15.6962 20.9507 13.8535 21.3173C12.0107 21.6839 10.1001 21.4953 8.36424 20.7763C6.62853 20.0573 5.14437 18.8404 4.10058 17.2783Z" fill="black"/>
</svg>
