<svg width="24" height="24" viewBox="0 0 24 24" fill="none" xmlns="http://www.w3.org/2000/svg">
<path d="M1.64625 17.835C1.86 18.2775 2.75438 18.2494 3.24751 18.0938C4.5075 17.6963 5.29125 16.6125 5.29125 16.6125L11.7863 13.8563L13.7756 12.8119C13.7756 12.8119 14.1619 12.1556 13.3894 11.655C12.6169 11.1544 12.075 11.1169 12.075 11.1169L9.83625 12.5419C9.83625 12.5419 8.39063 11.4169 6.9225 11.2463C5.52 11.085 3.77438 12.225 3.315 14.3775C2.94188 16.1231 2.35125 16.7381 2.17313 16.965C1.995 17.1938 1.4625 17.4563 1.64625 17.835Z" fill="#5A5C62"/>
<path d="M9.42749 6.0281C10.0031 4.1231 10.7306 1.89372 11.8294 1.1306C12.8025 0.455595 13.7494 0.57747 14.1994 0.871845C14.1994 0.871845 15.0112 1.20372 15.225 2.04185C15.5775 3.4181 15.1144 5.06997 14.8125 6.77622C14.5106 8.48247 14.3531 9.65622 14.2162 11.0268C14.2031 11.1506 11.9362 15.1856 11.9362 15.1856L10.1269 16.155C10.1269 16.155 8.74499 13.1662 8.76562 12.7443C8.78437 12.3206 9.00749 7.41935 9.42749 6.0281Z" fill="#D5D6D7"/>
<path d="M14.1469 12.5513C14.1713 13.0069 13.0725 16.6388 13.0725 16.6388L10.125 16.1513C10.125 16.1513 8.03439 14.9138 7.97626 12.6694C7.88626 9.28501 8.46564 7.69126 8.88564 6.30001C9.46314 4.39876 10.7494 1.89376 11.8388 1.11751C12.4781 0.661886 13.1869 0.594387 13.4775 0.650637C13.4775 0.650637 11.5425 2.16564 10.5638 4.75689C9.58501 7.34814 9.35439 10.3425 9.35439 10.3425C9.35439 10.3425 10.0744 10.8731 11.7731 11.1169C13.0856 11.3063 14.2181 10.9856 14.2181 10.9856C14.2181 10.9856 14.115 11.9738 14.1469 12.5513Z" fill="#C4C5C7"/>
<path d="M8.00062 15.7031L9.17999 13.2394L9.11624 12.3619C9.11624 12.3619 8.86499 11.625 10.4344 12.8156C11.1619 13.3669 11.6006 14.3831 11.6006 14.3831C11.6006 14.3831 11.8219 13.8356 12.5981 13.1119C13.2881 12.4706 14.2162 12.1594 14.2162 12.1594C14.2162 12.1594 16.1437 11.7844 16.3537 11.9475C17.7131 13.0087 18.7069 14.3006 18.7069 14.3006L19.7062 18.0787L21.3675 19.0969C21.3675 19.0969 20.9137 19.7606 20.2575 19.5131C19.7456 19.32 19.1119 18.7406 18.7706 18.0112C18.3019 17.0081 17.3175 15.1106 16.8169 14.5106C15.8494 13.3556 14.9006 12.9337 14.1937 13.2694C13.3894 13.65 14.0325 17.4487 14.0325 17.4487L19.2037 21.8006L19.2919 22.3931C19.2919 22.3931 18.54 23.115 16.4681 23.0475C14.3962 22.98 11.625 22.2131 9.87187 19.8225C8.32499 17.715 8.00062 15.7031 8.00062 15.7031Z" fill="#7B7C81"/>
<path d="M12.0787 15.93C12.0337 16.9706 12.6825 18.5475 14.1825 19.8619C15.6806 21.1763 17.2631 21.6113 18.2456 21.6863C18.9581 21.7406 19.17 21.3338 19.17 21.3338C19.17 21.3338 17.7337 20.0119 16.6669 18.9525C15.6544 17.9456 14.5519 15.8306 14.3119 14.8575C14.0719 13.8844 14.2894 13.23 14.2894 13.23C14.2894 13.23 13.8244 13.3594 13.14 14.0456C12.4762 14.7113 12.1031 15.3525 12.0787 15.93Z" fill="#85878B"/>
<path d="M18.4781 22.2638C18.6337 22.6256 19.1681 22.6406 19.4006 22.44C19.62 22.2506 19.8337 21.8738 19.6125 21.4519C19.4662 21.1744 18.9862 21.0975 18.7162 21.3131C18.4462 21.5288 18.3375 21.9356 18.4781 22.2638Z" fill="#1B1D24"/>
<path d="M19.545 18.345C20.16 19.1981 20.7769 19.3275 21.0319 19.3556C21.255 19.3818 21.4988 19.0968 21.4706 18.8343C21.4425 18.5718 21.0113 18.2025 20.9588 17.3962C20.9063 16.59 20.97 13.6331 19.3294 11.9343C18.1725 10.7381 16.755 11.1506 15.84 11.4675C14.8088 11.8237 14.2144 12.1612 14.2144 12.1612C14.2144 12.1612 15.0581 12.1031 16.5131 13.2506C17.3588 13.9181 17.8556 14.835 18.3244 15.8868C18.6619 16.6481 19.1119 17.745 19.545 18.345Z" fill="#D5D6D7"/>
<path d="M3.1875 20.5463C3.36 20.8913 3.78187 21.105 4.155 21.0882C4.94437 21.0544 5.66437 20.6475 6.46125 19.62C7.58812 18.165 8.56875 14.6738 9.30375 13.7438C9.80062 13.1157 10.4194 12.8044 10.4194 12.8044C10.4194 12.8044 10.0781 12.5157 9.73687 12.3375C9.39562 12.1594 8.57062 12.2438 8.57062 12.2438L5.04937 17.9025L3.1875 20.5463Z" fill="#85878B"/>
<path d="M5.17688 12.8363C4.40438 13.9406 4.30313 14.91 4.18688 15.9C4.08188 16.7944 3.86626 18.675 3.54188 19.2881C3.21563 19.9013 2.89876 20.3006 3.24938 20.6738C3.60001 21.0469 4.63126 20.9138 5.37188 20.1075C5.96813 19.4569 6.29813 18.7481 6.74626 17.7075C7.19438 16.6669 7.85438 14.2106 8.71126 13.1006C9.25876 12.3919 9.80438 12.3713 9.80438 12.3713C9.80438 12.3713 9.08251 11.7825 7.70438 11.7675C6.46876 11.7544 5.82001 11.9175 5.17688 12.8363Z" fill="#D5D6D7"/>
</svg>
