<svg width="25" height="25" viewBox="0 0 25 25" fill="none" xmlns="http://www.w3.org/2000/svg">
<path d="M11.2657 3.125C12.5821 3.125 13.7739 3.65836 14.6368 4.52081C15.0308 4.41546 15.4448 4.35922 15.872 4.35922C18.5057 4.35922 20.6408 6.49427 20.6408 9.12797C20.6408 9.55513 20.5845 9.96919 20.4792 10.3631C21.3416 11.2261 21.875 12.4178 21.875 13.7342C21.875 15.9408 20.3763 17.7972 18.3414 18.3414C17.7972 20.3763 15.9408 21.875 13.7342 21.875C12.4179 21.875 11.2261 21.3416 10.3632 20.4792C9.96921 20.5845 9.55518 20.6408 9.12799 20.6408C6.49429 20.6408 4.35925 18.5057 4.35922 15.872C4.35922 15.4448 4.41546 15.0308 4.52081 14.6368C3.65838 13.7739 3.125 12.5821 3.125 11.2657C3.125 9.05923 4.62361 7.20276 6.65856 6.65858C7.20274 4.62364 9.0592 3.125 11.2657 3.125ZM11.1777 10.6748C10.8483 9.44542 9.75781 8.66937 8.74237 8.94146C7.72693 9.21355 7.17056 10.4309 7.49995 11.6602C7.5053 11.6802 7.51089 11.7001 7.51672 11.72L7.51603 11.7201L7.85272 12.9767C8.18211 14.2061 9.27261 14.9821 10.2881 14.71C11.3035 14.4379 11.8599 13.2206 11.5304 11.9913L11.1938 10.7347L11.193 10.7349C11.1882 10.7148 11.1831 10.6947 11.1777 10.6748ZM16.7779 9.29198C16.4484 8.06264 15.358 7.28659 14.3425 7.55866C13.3271 7.83073 12.7707 9.04808 13.1001 10.2774C13.1055 10.2974 13.111 10.3173 13.1169 10.3372L13.1162 10.3373L13.4529 11.5939C13.7823 12.8233 14.8728 13.5993 15.8882 13.3273C16.9036 13.0551 17.46 11.8378 17.1306 10.6085L16.7939 9.3519L16.7932 9.3521C16.7883 9.332 16.7832 9.31196 16.7779 9.29198ZM9.87394 11.7017C10.0326 11.6591 10.1958 11.7533 10.2383 11.912C10.2808 12.0707 10.1866 12.2337 10.0279 12.2763C9.86926 12.3188 9.70619 12.2246 9.66366 12.066C9.62115 11.9073 9.7153 11.7442 9.87394 11.7017ZM8.55262 9.84709C8.68971 10.0608 8.87601 10.2386 9.09591 10.3656C9.31581 10.4925 9.56293 10.565 9.81657 10.5768C9.60285 10.7139 9.42507 10.9002 9.29811 11.1201C9.17115 11.34 9.09871 11.5871 9.08685 11.8408C8.94975 11.627 8.76346 11.4493 8.54355 11.3223C8.32365 11.1953 8.07654 11.1229 7.8229 11.111C8.03663 10.9739 8.21441 10.7876 8.34137 10.5677C8.46832 10.3478 8.54076 10.1007 8.55262 9.84709ZM15.4741 10.3189C15.6328 10.2764 15.7959 10.3705 15.8384 10.5292C15.8809 10.6879 15.7867 10.851 15.6281 10.8935C15.4694 10.936 15.3063 10.8418 15.2638 10.6832C15.2213 10.5245 15.3155 10.3614 15.4741 10.3189ZM14.1528 8.46434C14.2899 8.67806 14.4762 8.85584 14.6961 8.9828C14.916 9.10976 15.1631 9.1822 15.4167 9.19406C15.203 9.33117 15.0252 9.51746 14.8983 9.73736C14.7713 9.95725 14.6989 10.2044 14.687 10.458C14.5499 10.2443 14.3636 10.0665 14.1437 9.93952C13.9238 9.81256 13.6767 9.74012 13.4231 9.72826C13.6368 9.59117 13.8146 9.40488 13.9415 9.18498C14.0685 8.96508 14.1409 8.71797 14.1528 8.46434Z" fill="black"/>
</svg>
