<svg width="24" height="24" viewBox="0 0 24 24" fill="none" xmlns="http://www.w3.org/2000/svg">
<path fill-rule="evenodd" clip-rule="evenodd" d="M20.5291 3.4438L20.6122 3.52495L20.6146 3.52263C22.2151 5.1053 21.7561 8.28532 19.4354 11.8904L24 16.388L23.8039 16.7643C23.0364 18.2384 21.9975 19.5591 20.7401 20.6592C19.0838 22.116 17.0844 23.1423 14.9233 23.6452L14.8449 23.6638L14.7327 23.6901L14.6518 23.7078L14.4737 23.7465L14.3263 23.7751L14.2156 23.7959C14.0979 23.8191 13.9748 23.8408 13.8547 23.8608L13.7543 23.8755L13.6782 23.8848C13.5699 23.8992 13.4622 23.9126 13.355 23.925C11.5558 24.1243 9.73409 23.9252 8.02307 23.3421C6.31204 22.759 4.7549 21.8067 3.46545 20.5549L3.39013 20.483C1.78647 18.9003 2.24073 15.718 4.56463 12.1106L0 7.61299L0.196143 7.23664C0.961493 5.76157 2.00159 4.44138 3.26224 3.34489C4.55042 2.21676 6.04609 1.34218 7.66839 0.768412C8.04498 0.63472 8.43884 0.518029 8.82563 0.419112C9.1444 0.334967 9.46662 0.264065 9.79143 0.206596C9.90127 0.184958 10.0252 0.162547 10.1453 0.142454C12.0176 -0.145008 13.9323 0.00390571 15.7356 0.577243C17.5389 1.15058 19.1807 2.13237 20.5291 3.4438ZM18.9858 3.637H18.9811L18.9858 3.63932C17.4347 3.16637 14.9735 3.93066 12.3719 5.6192C14.3514 5.07593 16.2657 5.35722 17.503 6.57668C18.6751 7.73355 18.996 9.48932 18.5519 11.334C18.531 11.4324 18.5049 11.5321 18.4735 11.633C20.5973 8.46847 21.2768 5.50792 19.932 4.18568C19.9099 4.16184 19.8863 4.13938 19.8614 4.11845L19.8512 4.10917L19.8363 4.09604L19.7916 4.06203C19.7722 4.04658 19.7521 4.03164 19.7312 4.01721L19.6982 3.99403C19.4831 3.83588 19.2422 3.71513 18.9858 3.637ZM17.9212 10.7505C17.6473 12.3595 16.7443 13.9854 15.3752 15.3324C14.0101 16.6801 12.3562 17.5704 10.7204 17.8424C9.18967 18.0974 7.86924 17.7651 7.00386 16.915C6.14083 16.0642 5.80347 14.7682 6.06237 13.2528C6.33619 11.6454 7.23688 10.0187 8.59967 8.67326C8.59967 8.67326 8.60203 8.67326 8.60752 8.66553L8.61223 8.6578C9.97973 7.31933 11.6273 6.4314 13.2592 6.16247C14.7899 5.90745 16.1072 6.2382 16.9757 7.08981C17.8388 7.93988 18.1761 9.23816 17.9172 10.7513L17.9212 10.7505ZM4.04995 4.21273C3.00775 5.12054 2.13032 6.19674 1.45538 7.39507L1.44753 7.39738L5.40804 11.2891C5.73076 10.8414 6.07597 10.3989 6.44367 9.96149C6.57234 9.81003 6.70467 9.65598 6.84067 9.49937L6.89245 9.44141L7.08074 9.2343C7.08624 9.22966 7.09173 9.21962 7.09173 9.21962L7.12625 9.18098L7.1443 9.16011L7.17176 9.13075L7.24237 9.05347C7.29153 8.99783 7.34253 8.94296 7.39536 8.88886C7.39536 8.88345 7.4032 8.87573 7.4032 8.87573L7.48794 8.78454L7.54835 8.72271C7.55096 8.71859 7.55306 8.71808 7.55306 8.71808C7.55776 8.71396 7.55855 8.71035 7.55855 8.71035L7.56953 8.69644L7.58052 8.6833C7.59008 8.67607 7.59877 8.66777 7.60641 8.65857L7.62131 8.64312C7.65348 8.61143 7.69193 8.57434 7.72645 8.53724C7.74475 8.51509 7.76568 8.49294 7.78921 8.47079L7.82138 8.43833C7.82687 8.4306 7.84178 8.41592 7.84178 8.41592L7.90219 8.35719L8.01988 8.24281L8.0591 8.20186L8.10304 8.15626C8.95111 7.31805 9.85739 6.539 10.8153 5.82476L10.9408 5.73434H10.9416V5.73357L10.9432 5.7328L11.0687 5.64161C11.2089 5.53806 11.3501 5.43682 11.4924 5.3379C11.6441 5.2359 11.7957 5.13543 11.9474 5.03652C14.0046 3.68568 16.0194 2.87503 17.6638 2.71429C15.4638 1.40687 12.867 0.903505 10.3281 1.29236C10.2182 1.30936 10.1131 1.32714 10.0001 1.34955C9.92873 1.36191 9.86675 1.37428 9.80399 1.38664L9.76633 1.39437C9.18966 1.5113 8.62206 1.66805 8.06773 1.86345C6.58802 2.38524 5.22339 3.18285 4.04995 4.21273ZM4.26885 19.9838C4.48853 20.1486 4.7388 20.2738 5.01968 20.3593H5.0134C6.5747 20.8292 9.02648 20.0626 11.6187 18.3787C9.64158 18.9196 7.73115 18.6384 6.49389 17.4189C5.32723 16.2674 5.00634 14.5063 5.44805 12.6616C5.47002 12.5632 5.49591 12.4635 5.52573 12.3625C3.40268 15.5279 2.72481 18.4877 4.068 19.8107C4.09833 19.84 4.13076 19.8697 4.16528 19.8995C4.19771 19.9284 4.23276 19.9565 4.26885 19.9838ZM22.5423 16.6067V16.6082C21.8663 17.8048 20.9896 18.88 19.9493 19.7883C18.3924 21.15 16.5104 22.1008 14.4792 22.5517L14.4541 22.5579L14.3867 22.5734C14.3104 22.5937 14.2332 22.6102 14.1552 22.6228C14.1045 22.6337 14.0527 22.6432 13.9999 22.6514C13.8905 22.6723 13.7807 22.6904 13.6703 22.7055L13.5786 22.721L13.4742 22.7341C13.3905 22.7455 13.3047 22.7558 13.2169 22.765C10.8214 23.0307 8.40389 22.5111 6.33854 21.2867C7.9218 21.1329 9.84949 20.3717 11.8266 19.1128L11.9396 19.0402L12.0526 18.9668L12.2063 18.8648H12.2071L12.5045 18.6654C12.6483 18.5665 12.7895 18.4652 12.9281 18.3617C13.015 18.3004 13.1002 18.2393 13.1839 18.1785C14.1406 17.4622 15.047 16.683 15.897 15.8463C15.9174 15.8257 15.9364 15.8056 15.9542 15.786L15.9778 15.7597C16.0196 15.7211 16.0588 15.6832 16.0955 15.6461L16.1551 15.5874C16.1551 15.5874 16.1708 15.5719 16.1731 15.5642C16.181 15.5575 16.1886 15.5503 16.1959 15.5426L16.2053 15.5325L16.2736 15.4661L16.3261 15.412C16.3439 15.3955 16.3614 15.378 16.3787 15.3594L16.3928 15.344C16.4005 15.335 16.4092 15.327 16.4187 15.32L16.4305 15.3061L16.4415 15.293C16.4415 15.293 16.4493 15.2852 16.454 15.2829L16.4752 15.2605L16.4964 15.2381L16.5168 15.2188C16.4948 15.2414 16.4739 15.2651 16.454 15.2899L16.5026 15.2396L16.5034 15.2381C16.5374 15.202 16.5712 15.1675 16.6046 15.1345C16.6046 15.1345 16.6046 15.1268 16.6125 15.1268C16.6585 15.0784 16.7032 15.0294 16.7466 14.98L16.8353 14.8826C16.847 14.8751 16.8565 14.8647 16.8628 14.8525L16.913 14.793L16.9255 14.7783C16.9867 14.7139 17.0466 14.6487 17.1052 14.5828L17.1664 14.5132C17.2647 14.4004 17.3625 14.2868 17.4598 14.1724L17.5775 14.0341L17.6144 13.9893C17.6615 13.931 17.708 13.8744 17.754 13.8192C17.7933 13.7729 17.8317 13.7255 17.8694 13.6771C17.8929 13.6461 17.9172 13.616 17.9423 13.5866C18.1699 13.2976 18.3888 13.0132 18.5998 12.7211L22.5423 16.6067ZM22.5423 16.6067C22.5423 16.6041 22.5438 16.6021 22.547 16.6005V16.6129L22.5423 16.6082H22.5438L22.5423 16.6067Z" fill="black"/>
</svg>
