<svg width="24" height="24" viewBox="0 0 24 24" fill="none" xmlns="http://www.w3.org/2000/svg">
<path d="M13.5 12C13.5 11.1716 12.8284 10.5 12 10.5C11.1716 10.5 10.5 11.1716 10.5 12C10.5 12.8284 11.1716 13.5 12 13.5C12.8284 13.5 13.5 12.8284 13.5 12Z" fill="white"/>
<path d="M12 15.75C12.8284 15.75 13.5 16.4216 13.5 17.25C13.5 18.0784 12.8284 18.75 12 18.75C11.1716 18.75 10.5 18.0784 10.5 17.25C10.5 16.4216 11.1716 15.75 12 15.75Z" fill="white"/>
<path d="M13.5 6.75C13.5 5.92157 12.8284 5.25 12 5.25C11.1716 5.25 10.5 5.92157 10.5 6.75C10.5 7.57843 11.1716 8.25 12 8.25C12.8284 8.25 13.5 7.57843 13.5 6.75Z" fill="white"/>
<path fill-rule="evenodd" clip-rule="evenodd" d="M12 0C18.6274 -2.89694e-07 24 5.37258 24 12C24 18.6274 18.6274 24 12 24C5.37258 24 2.89694e-07 18.6274 0 12C-2.89694e-07 5.37258 5.37258 2.89694e-07 12 0ZM12 2.25C17.3848 2.25 21.75 6.61522 21.75 12C21.75 17.3848 17.3848 21.75 12 21.75C6.61522 21.75 2.25 17.3848 2.25 12C2.25 6.61522 6.61522 2.25 12 2.25Z" fill="white"/>
</svg>
