<svg width="24" height="24" viewBox="0 0 24 24" fill="none" xmlns="http://www.w3.org/2000/svg">
<path d="M12 24C18.6274 24 24 18.6274 24 12C24 5.37259 18.6274 3.8147e-06 12 3.8147e-06C5.37258 3.8147e-06 0 5.37259 0 12C0 18.6274 5.37258 24 12 24ZM12 21.75C6.61522 21.75 2.25 17.3848 2.25 12C2.25 6.61523 6.61522 2.25 12 2.25C17.3848 2.25 21.75 6.61523 21.75 12C21.75 17.3848 17.3848 21.75 12 21.75ZM17.2959 10.5459L15.7051 8.95508L12 12.6592L8.2959 8.95508L6.70508 10.5459L12 15.8408L17.2959 10.5459Z" fill="white"/>
</svg>
