<svg width="24" height="24" viewBox="0 0 24 24" fill="none" xmlns="http://www.w3.org/2000/svg">
<g clip-path="url(#clip0_384_31)">
<path d="M15.5557 7.51074H13.0635V10.5635H16.1172V8.07129H18.5918L22.334 11.8135L21.9805 12.167L18.7383 15.4102L18.5918 15.5566H16.1172V13.0635H13.0635V16.1172H15.5557V18.5918L11.8135 22.334L11.46 21.9805L8.2168 18.7383L8.07031 18.5918V16.1172H10.5635V13.0635H7.50977V15.5566H5.03516L4.88867 15.4102L1.64648 12.167L1.29297 11.8135L5.03516 8.07129H7.50977V10.5635H10.5635V7.51074H8.07031V5.03516L8.2168 4.88867L11.46 1.64648L11.8135 1.29297L15.5557 5.03516V7.51074Z" fill="black" stroke="white"/>
</g>
<defs>
<clipPath id="clip0_384_31">
<rect width="24" height="24" fill="white"/>
</clipPath>
</defs>
</svg>
