<svg width="24" height="24" viewBox="0 0 24 24" fill="none" xmlns="http://www.w3.org/2000/svg">
<path fill-rule="evenodd" clip-rule="evenodd" d="M6.75 1.5V14.102C6.08811 13.7191 5.31965 13.5 4.5 13.5C2.01472 13.5 0 15.5147 0 18C0 20.4853 2.01472 22.5 4.5 22.5C6.98528 22.5 9 20.4853 9 18V9H20.25V14.102C19.5881 13.7191 18.8196 13.5 18 13.5C15.5147 13.5 13.5 15.5147 13.5 18C13.5 20.4853 15.5147 22.5 18 22.5C20.4853 22.5 22.5 20.4853 22.5 18V1.5H6.75ZM20.25 6.75V3.75H9V6.75H20.25ZM18 15.75C19.2426 15.75 20.25 16.7574 20.25 18C20.25 19.2426 19.2426 20.25 18 20.25C16.7574 20.25 15.75 19.2426 15.75 18C15.75 16.7574 16.7574 15.75 18 15.75ZM6.75 18C6.75 16.7574 5.74264 15.75 4.5 15.75C3.25736 15.75 2.25 16.7574 2.25 18C2.25 19.2426 3.25736 20.25 4.5 20.25C5.74264 20.25 6.75 19.2426 6.75 18Z" fill="white"/>
</svg>
