<svg width="24" height="24" viewBox="0 0 24 24" fill="none" xmlns="http://www.w3.org/2000/svg">
<path fill-rule="evenodd" clip-rule="evenodd" d="M24 12C24 18.6274 18.6274 24 12 24C5.37258 24 0 18.6274 0 12C0 5.37258 5.37258 0 12 0C18.6274 0 24 5.37258 24 12ZM10.5 8.25C10.5 9.49264 9.49264 10.5 8.25 10.5C7.00736 10.5 6 9.49264 6 8.25C6 7.00736 7.00736 6 8.25 6C9.49264 6 10.5 7.00736 10.5 8.25ZM15.75 10.5C16.9926 10.5 18 9.49264 18 8.25C18 7.00736 16.9926 6 15.75 6C14.5074 6 13.5 7.00736 13.5 8.25C13.5 9.49264 14.5074 10.5 15.75 10.5Z" fill="black"/>
</svg>
