<svg width="24" height="24" viewBox="0 0 24 24" fill="none" xmlns="http://www.w3.org/2000/svg">
<path d="M10.4111 8.28966C10.9969 8.87545 11.9466 8.87545 12.5324 8.28966C13.1182 7.70388 13.1182 6.75413 12.5324 6.16834C11.9466 5.58255 10.9969 5.58255 10.4111 6.16834C9.82529 6.75413 9.82529 7.70388 10.4111 8.28966Z" fill="white"/>
<path d="M17.8357 14.343C17.2499 14.9288 16.3001 14.9288 15.7144 14.343C15.1286 13.7572 15.1286 12.8075 15.7144 12.2217C16.3001 11.6359 17.2499 11.6359 17.8357 12.2217C18.4215 12.8075 18.4215 13.7572 17.8357 14.343Z" fill="white"/>
<path d="M7.75937 16.2446C6.00846 14.4937 5.56592 11.9298 6.43174 9.768L8.41315 10.912C8.02527 12.1931 8.33767 13.6409 9.35036 14.6536C10.0828 15.386 11.0406 15.7519 12.002 15.7519C13.6589 15.7519 15.002 17.0951 15.002 18.7519V19.5019H12.752V18.7519C12.752 18.3377 12.4162 18.0019 12.002 18.0019C10.4682 18.0019 8.93073 17.4159 7.75937 16.2446Z" fill="white"/>
<path fill-rule="evenodd" clip-rule="evenodd" d="M24.002 19.502L22.0681 18.535C22.1807 18.3612 22.2895 18.1835 22.3943 18.002C22.6697 17.5251 22.9086 17.0371 23.1119 16.5413C25.3552 11.0706 23.2646 4.64805 18.002 1.6097C12.2625 -1.70401 4.92341 0.262492 1.6097 6.002C-0.319115 9.34281 -0.458958 13.2256 0.892935 16.541C1.1756 17.2342 1.52349 17.9026 1.93387 18.5361L0.00203299 19.502V24.002H11.7707C11.9176 24.0047 12.0644 24.0047 12.211 24.002H24.002V19.502ZM20.1797 17.3117L18.8122 19.4227L21.752 20.8926V21.752H12.1903L12.1696 21.7524C12.0506 21.7546 11.9313 21.7546 11.812 21.7524L11.7914 21.752H2.25203V20.8926L5.1898 19.4237L3.82224 17.3127C1.89069 14.3312 1.66503 10.4062 3.55826 7.127C6.25064 2.46365 12.2136 0.865868 16.877 3.55826C21.5404 6.25064 23.1381 12.2136 20.4458 16.877C20.3602 17.0252 20.2715 17.1701 20.1797 17.3117Z" fill="white"/>
</svg>
