<svg width="24" height="24" viewBox="0 0 24 24" fill="none" xmlns="http://www.w3.org/2000/svg">
<path fill-rule="evenodd" clip-rule="evenodd" d="M13.5 9L15 10.5H24V1.5L22.5 0L18.7955 3.7045L17.6831 2.59214C16.0234 0.932422 13.7723 0 11.4252 0C5.11521 0 0 5.11522 0 11.4252V12C0 18.6274 5.37258 24 12 24C15.0693 24 18.1424 22.8282 20.4853 20.4853L18.8943 18.8943C16.9903 20.7983 14.497 21.75 12 21.75C6.61522 21.75 2.25 17.3848 2.25 12V11.4252C2.25 6.35786 6.35786 2.25 11.4252 2.25C13.1756 2.25 14.8544 2.94537 16.0921 4.18313L17.2045 5.2955L13.5 9ZM21.75 3.93198V8.25H17.432L21.75 3.93198Z" fill="white"/>
</svg>
