<svg width="24" height="24" viewBox="0 0 24 24" fill="none" xmlns="http://www.w3.org/2000/svg">
<path fill-rule="evenodd" clip-rule="evenodd" d="M24 12L12.6097 22.3903H9.76212V16.2936C5.95222 16.5128 3.5677 17.6386 2.09119 18.8297L0 17.6215C0.55117 13.587 2.56375 8.38928 9.76212 7.78703V1.6097H12.6097L24 12ZM11.8978 9.75169L9.9401 9.91576C7.66821 10.1058 6.14378 10.8115 5.08615 11.6858C4.0136 12.5726 3.28821 13.7428 2.80308 15.0506C2.68538 15.3679 2.5841 15.6887 2.4958 16.0086C4.25079 15.0558 6.57865 14.3382 9.63977 14.1621L11.8978 14.0314V20.0822L20.98 12L11.8978 3.91779V9.75169Z" fill="white"/>
</svg>
