<svg width="24" height="24" viewBox="0 0 24 24" fill="none" xmlns="http://www.w3.org/2000/svg">
<path fill-rule="evenodd" clip-rule="evenodd" d="M0.75 0H3.75L23.25 24H20.25L12 13.8462V22.5H9L3 16.5H0V7.5H3L5.12069 5.37931L0.75 0ZM6.54709 7.13489L3.93198 9.75H2.25V14.25H3.93198L9.75 20.068V11.0769L6.54709 7.13489Z" fill="white"/>
<path d="M20.5212 15.8841L21.981 17.6807C23.2432 16.1315 24 14.1541 24 12C24 7.02944 19.9706 3 15 3V5.25C18.7279 5.25 21.75 8.27208 21.75 12C21.75 13.4459 21.2954 14.7857 20.5212 15.8841Z" fill="white"/>
</svg>
