<svg width="24" height="24" viewBox="0 0 24 24" fill="none" xmlns="http://www.w3.org/2000/svg">
<path d="M12 7.5C12.8284 7.5 13.5 6.82843 13.5 6C13.5 5.17157 12.8284 4.5 12 4.5C11.1716 4.5 10.5 5.17157 10.5 6C10.5 6.82843 11.1716 7.5 12 7.5Z" fill="white"/>
<path d="M7.5 12C7.5 12.8284 6.82843 13.5 6 13.5C5.17157 13.5 4.5 12.8284 4.5 12C4.5 11.1716 5.17157 10.5 6 10.5C6.82843 10.5 7.5 11.1716 7.5 12Z" fill="white"/>
<path d="M6.69679 8.81815C7.28257 9.40394 8.23232 9.40394 8.81811 8.81815C9.40389 8.23236 9.40389 7.28262 8.81811 6.69683C8.23232 6.11104 7.28257 6.11104 6.69679 6.69683C6.111 7.28262 6.111 8.23236 6.69679 8.81815Z" fill="white"/>
<path d="M15.182 8.81811C14.5962 8.23232 14.5962 7.28257 15.182 6.69679C15.7678 6.111 16.7176 6.111 17.3034 6.69679C17.8891 7.28257 17.8891 8.23232 17.3034 8.81811C16.7176 9.40389 15.7678 9.40389 15.182 8.81811Z" fill="white"/>
<path d="M8.81833 17.3032C9.40412 16.7174 9.40412 15.7677 8.81833 15.1819C8.23255 14.5961 7.2828 14.5961 6.69701 15.1819C6.11123 15.7677 6.11123 16.7174 6.69701 17.3032C7.2828 17.889 8.23255 17.889 8.81833 17.3032Z" fill="white"/>
<path fill-rule="evenodd" clip-rule="evenodd" d="M23.7894 14.25H13.5V15L18 19.5V22.3946C16.235 23.4156 14.1857 24 12 24C5.37258 24 0 18.6274 0 12C0 5.37258 5.37258 0 12 0C18.6274 0 24 5.37258 24 12C24 12.769 23.9277 13.5212 23.7894 14.25ZM15.75 20.432V21.0034C14.5973 21.4842 13.3316 21.75 12 21.75C6.61522 21.75 2.25 17.3848 2.25 12C2.25 6.61522 6.61522 2.25 12 2.25C17.3848 2.25 21.75 6.61522 21.75 12H11.25V15.932L15.75 20.432Z" fill="white"/>
</svg>
