<svg width="24" height="24" viewBox="0 0 24 24" fill="none" xmlns="http://www.w3.org/2000/svg">
<path d="M12 4.5L15.75 3.75L16.5 0H18L18.75 3.75L22.5 4.5V6L18.75 6.75L18 10.5H16.5L15.75 6.75L12 6V4.5Z" fill="black"/>
<path d="M0 16.5V15L6 13.5L7.5 7.5H9L10.5 13.5L16.5 15V16.5L10.5 18L9 24H7.5L6 18L0 16.5Z" fill="black"/>
<path d="M1.5 3L3.75 0.75L6 3L3.75 5.25L1.5 3Z" fill="black"/>
<path d="M22.5 21L19.5 18L16.5 21L19.5 24L22.5 21Z" fill="black"/>
<path d="M22.5 15C23.3284 15 24 14.3284 24 13.5C24 12.6716 23.3284 12 22.5 12C21.6716 12 21 12.6716 21 13.5C21 14.3284 21.6716 15 22.5 15Z" fill="black"/>
</svg>
