<svg width="24" height="24" viewBox="0 0 24 24" fill="none" xmlns="http://www.w3.org/2000/svg">
<path fill-rule="evenodd" clip-rule="evenodd" d="M11 18C11 20.7614 8.76142 23 6 23C3.23858 23 1 20.7614 1 18C1 15.2386 3.23858 13 6 13H11V18ZM6 15.2002C4.4536 15.2002 3.2002 16.4536 3.2002 18C3.2002 19.5464 4.4536 20.7998 6 20.7998C7.5464 20.7998 8.7998 19.5464 8.7998 18V15.2002H6Z" fill="white"/>
<path fill-rule="evenodd" clip-rule="evenodd" d="M18 13C20.7614 13 23 15.2386 23 18C23 20.7614 20.7614 23 18 23C15.2386 23 13 20.7614 13 18V13H18ZM15.2002 18C15.2002 19.5464 16.4536 20.7998 18 20.7998C19.5464 20.7998 20.7998 19.5464 20.7998 18C20.7998 16.4536 19.5464 15.2002 18 15.2002H15.2002V18Z" fill="white"/>
<path fill-rule="evenodd" clip-rule="evenodd" d="M6 1C8.76142 1 11 3.23858 11 6V11H6C3.23858 11 1 8.76142 1 6C1 3.23858 3.23858 1 6 1ZM6 3.2002C4.4536 3.2002 3.2002 4.4536 3.2002 6C3.2002 7.5464 4.4536 8.7998 6 8.7998H8.7998V6C8.7998 4.4536 7.5464 3.2002 6 3.2002Z" fill="white"/>
<path fill-rule="evenodd" clip-rule="evenodd" d="M18 1C20.7614 1 23 3.23858 23 6C23 8.76142 20.7614 11 18 11H13V6C13 3.23858 15.2386 1 18 1ZM18 3.2002C16.4536 3.2002 15.2002 4.4536 15.2002 6V8.7998H18C19.5464 8.7998 20.7998 7.5464 20.7998 6C20.7998 4.4536 19.5464 3.2002 18 3.2002Z" fill="white"/>
</svg>
