<svg width="24" height="24" viewBox="0 0 24 24" fill="none" xmlns="http://www.w3.org/2000/svg">
<path fill-rule="evenodd" clip-rule="evenodd" d="M12 15.75C14.0711 15.75 15.75 14.0711 15.75 12C15.75 9.92893 14.0711 8.25 12 8.25C9.92893 8.25 8.25 9.92893 8.25 12C8.25 14.0711 9.92893 15.75 12 15.75ZM12 13.5C12.8284 13.5 13.5 12.8284 13.5 12C13.5 11.1716 12.8284 10.5 12 10.5C11.1716 10.5 10.5 11.1716 10.5 12C10.5 12.8284 11.1716 13.5 12 13.5Z" fill="white"/>
<path fill-rule="evenodd" clip-rule="evenodd" d="M13.125 3.06963V0H10.875V3.06963C6.80394 3.57728 3.57728 6.80394 3.06963 10.875H0V13.125H3.06963C3.57728 17.1961 6.80394 20.4227 10.875 20.9304V24H13.125V20.9304C17.1961 20.4227 20.4227 17.1961 20.9304 13.125H24V10.875H20.9304C20.4227 6.80394 17.1961 3.57728 13.125 3.06963ZM12 18.75C15.7279 18.75 18.75 15.7279 18.75 12C18.75 8.27208 15.7279 5.25 12 5.25C8.27208 5.25 5.25 8.27208 5.25 12C5.25 15.7279 8.27208 18.75 12 18.75Z" fill="white"/>
</svg>
