<svg width="24" height="24" viewBox="0 0 24 24" fill="none" xmlns="http://www.w3.org/2000/svg">
<path d="M12 13.5C12.8284 13.5 13.5 12.8284 13.5 12C13.5 11.1716 12.8284 10.5 12 10.5C11.1716 10.5 10.5 11.1716 10.5 12C10.5 12.8284 11.1716 13.5 12 13.5Z" fill="white"/>
<path fill-rule="evenodd" clip-rule="evenodd" d="M13.125 0V2.3142C17.6107 2.82957 21.1704 6.38926 21.6858 10.875H24V13.125H21.6858C21.1704 17.6107 17.6107 21.1704 13.125 21.6858V24H10.875V21.6858C6.38926 21.1704 2.82957 17.6107 2.3142 13.125H0V10.875H2.3142C2.82957 6.38926 6.38926 2.82957 10.875 2.3142V0H13.125ZM10.875 7.5V4.58381C7.63352 5.07141 5.07141 7.63352 4.58381 10.875H7.5V13.125H4.58381C5.07141 16.3665 7.63352 18.9286 10.875 19.4162V16.5H13.125V19.4162C16.3665 18.9286 18.9286 16.3665 19.4162 13.125H16.5V10.875H19.4162C18.9286 7.63352 16.3665 5.07141 13.125 4.58381V7.5H10.875Z" fill="white"/>
</svg>
