<svg width="124" height="40" viewBox="0 0 124 40" fill="none" xmlns="http://www.w3.org/2000/svg">
<path d="M42.0618 5.62237C49.8822 5.62238 56.2219 11.962 56.2219 19.7823C56.2218 27.6027 49.8822 33.9423 42.0618 33.9423C34.2415 33.9423 27.9019 27.6027 27.9018 19.7823C27.9018 11.962 34.2415 5.62237 42.0618 5.62237ZM42.0618 13.1743C38.4124 13.1743 35.4538 16.1328 35.4538 19.7823C35.4538 23.4318 38.4124 26.3903 42.0618 26.3903C45.7113 26.3903 48.6698 23.4318 48.6698 19.7823C48.6698 16.1329 45.7113 13.1743 42.0618 13.1743Z" fill="black"/>
<path d="M89.3535 5.62237C97.1738 5.62237 103.514 11.962 103.514 19.7823C103.514 27.6027 97.1738 33.9423 89.3535 33.9423C81.5331 33.9423 75.1935 27.6027 75.1935 19.7823C75.1935 11.962 81.5331 5.62239 89.3535 5.62237ZM89.3535 13.1744C85.704 13.1744 82.7455 16.1329 82.7455 19.7823C82.7455 23.4318 85.704 26.3904 89.3535 26.3904C93.003 26.3904 95.9615 23.4318 95.9615 19.7823C95.9615 16.1329 93.003 13.1744 89.3535 13.1744Z" fill="black"/>
<path d="M59.1199 19.3272C59.1199 11.741 63.1893 6.56006 71.8774 6.56006H73.4399C73.8818 6.56006 74.2399 6.91823 74.2399 7.36006V13.3258C74.2399 13.7676 73.8818 14.1258 73.4399 14.1258H71.8774C68.8335 14.1258 66.6799 16.2577 66.6799 19.3272V32.24C66.6799 32.6818 66.3217 33.04 65.8799 33.04H59.9199C59.4781 33.04 59.1199 32.6818 59.1199 32.24V19.3272Z" fill="black"/>
<path d="M106 0.799999C106 0.358172 106.358 0 106.8 0H112.8C113.242 0 113.6 0.358171 113.6 0.799998V32.3199C113.6 32.7618 113.242 33.1199 112.8 33.1199H106.8C106.358 33.1199 106 32.7618 106 32.3199V0.799999Z" fill="black"/>
<path d="M116.4 0.799999C116.4 0.358172 116.758 0 117.2 0H123.2C123.642 0 124 0.358171 124 0.799998V32.3199C124 32.7618 123.642 33.1199 123.2 33.1199H117.2C116.758 33.1199 116.4 32.7618 116.4 32.3199V0.799999Z" fill="black"/>
<path d="M28.9593 6.56006C29.4318 6.56006 29.7414 7.05517 29.5348 7.48064L13.9664 39.5492C13.8326 39.825 13.5532 40 13.247 40L6.77145 39.9999C6.3041 39.9999 5.9944 39.5147 6.19077 39.0902L9.87052 31.1352C9.98507 30.8875 9.98903 30.6028 9.8814 30.3521L0.0526688 7.45377C-0.128799 7.031 0.180945 6.56029 0.640611 6.56029H7.87257C8.19884 6.56029 8.49242 6.75867 8.61443 7.06158L13.9677 20.3519C14.1249 20.7422 14.6717 20.756 14.8483 20.3742L21.0237 7.02432C21.1547 6.74124 21.4379 6.56006 21.7496 6.56006H28.9593Z" fill="black"/>
</svg>
