<svg width="100" height="34" viewBox="0 0 100 34" fill="none" xmlns="http://www.w3.org/2000/svg">
<g clip-path="url(#clip0_33_25)">
<path d="M33.7554 5.5686C40.0632 5.56878 45.1763 10.6826 45.1763 16.9905C45.1761 23.2982 40.063 28.4112 33.7554 28.4114C27.4475 28.4114 22.3337 23.2983 22.3335 16.9905C22.3335 10.6825 27.4474 5.5686 33.7554 5.5686ZM33.7554 11.6604C30.8117 11.6604 28.4253 14.0468 28.4253 16.9905C28.4255 19.934 30.8118 22.3206 33.7554 22.3206C36.6988 22.3204 39.0853 19.9339 39.0854 16.9905C39.0854 14.0469 36.699 11.6605 33.7554 11.6604Z" fill="black"/>
<path d="M71.8274 5.5686C78.1352 5.56878 83.2483 10.6826 83.2483 16.9905C83.2481 23.2982 78.135 28.4112 71.8274 28.4114C65.5195 28.4114 60.4057 23.2983 60.4055 16.9905C60.4055 10.6825 65.5194 5.5686 71.8274 5.5686ZM71.8274 11.6604C68.8837 11.6604 66.4973 14.0468 66.4973 16.9905C66.4975 19.934 68.8838 22.3206 71.8274 22.3206C74.7708 22.3204 77.1573 19.9339 77.1574 16.9905C77.1574 14.0469 74.7709 11.6606 71.8274 11.6604Z" fill="black"/>
<path d="M47.4611 16.6094C47.4611 14.9164 47.9442 12.445 49.4821 10.309C51.1319 8.01772 53.8543 6.33005 57.7404 6.33005H58.844C59.2859 6.33005 59.644 6.68822 59.644 7.13005V11.6215C59.644 12.0634 59.2859 12.4215 58.844 12.4215H57.7404C55.8399 12.4215 54.9459 13.1452 54.4255 13.8678C53.7933 14.7459 53.5525 15.8912 53.5525 16.6094V26.8503C53.5525 27.2921 53.1944 27.6503 52.7525 27.6503H48.2611C47.8192 27.6503 47.4611 27.2921 47.4611 26.8503V16.6094Z" fill="black"/>
<rect x="85.533" y="1" width="6.09149" height="26.6503" rx="0.8" fill="black"/>
<rect x="93.9086" y="1" width="6.09149" height="26.6503" rx="0.8" fill="black"/>
<path d="M10.7312 16.5261C10.9932 17.1759 11.9047 17.1988 12.1991 16.5631L16.7232 6.79387C16.8542 6.51105 17.1375 6.33005 17.4492 6.33005H22.6939C23.2847 6.33005 23.6717 6.94839 23.4135 7.47973L11.1305 32.7538C10.9966 33.0292 10.7172 33.2041 10.411 33.2041H5.74564C5.1614 33.2041 4.77421 32.5981 5.01967 32.068L7.78707 26.0905C7.88252 25.8843 7.88581 25.6473 7.79613 25.4386L0.0658401 7.44584C-0.160996 6.91787 0.226231 6.33005 0.800872 6.33005H6.07966C6.40597 6.33005 6.69958 6.52823 6.82161 6.83086L10.7312 16.5261Z" fill="black"/>
</g>
<defs>
<clipPath id="clip0_33_25">
<rect width="100" height="34" fill="white"/>
</clipPath>
</defs>
</svg>
