<svg width="24" height="24" viewBox="0 0 24 24" fill="none" xmlns="http://www.w3.org/2000/svg">
<path fill-rule="evenodd" clip-rule="evenodd" d="M7.5 17.25V21.75L9.75 24H14.25L16.5 21.75V17.25L18.3594 15.3906C20.0501 13.6999 21 11.4021 21 9.01103C21 4.04047 16.9706 0 12 0C7.02944 0 3 4.04047 3 9.01103C3 11.4021 3.94986 13.6999 5.64061 15.3906L7.5 17.25ZM14.25 20.818V18H9.75V20.818L10.682 21.75H13.318L14.25 20.818ZM14.818 15.75H13.125V9H10.875V15.75H9.18198L7.2316 13.7996C5.96366 12.5317 5.25 10.8066 5.25 9.01103C5.25 5.27952 8.27567 2.25 12 2.25C15.7243 2.25 18.75 5.27952 18.75 9.01103C18.75 10.8066 18.0363 12.5317 16.7684 13.7996L14.818 15.75Z" fill="white"/>
</svg>
