<svg width="24" height="24" viewBox="0 0 24 24" fill="none" xmlns="http://www.w3.org/2000/svg">
<path d="M16.0957 2.15625L21.8438 7.9043L23.1416 11.7979L19.2979 15.6416L15.4043 14.3438L14.625 13.5645L5.25 22.9395L1.06055 18.75L10.4355 9.375L9.65625 8.5957L8.3584 4.70215L12.2021 0.858398L16.0957 2.15625ZM2.12109 18.75L5.25 21.8789L14.0947 13.0342L10.9658 9.90527L2.12109 18.75ZM9.21582 4.90527L9.3623 5.34473L10.2549 8.02148L10.3115 8.18945L15.8105 13.6885L15.9785 13.7451L18.6553 14.6377L19.0947 14.7842L22.2842 11.5947L22.1377 11.1553L21.2451 8.47852L21.1885 8.31055L15.6895 2.81152L15.5215 2.75488L12.8447 1.8623L12.4053 1.71582L9.21582 4.90527Z" stroke="white" stroke-width="1.5"/>
</svg>
