<svg width="24" height="24" viewBox="0 0 24 24" fill="none" xmlns="http://www.w3.org/2000/svg">
<path d="M14.0625 2.25C12.3021 2.25 10.875 3.67709 10.875 5.4375V15.75C10.875 16.3713 11.3787 16.875 12 16.875C12.6213 16.875 13.125 16.3713 13.125 15.75V7.5H15.375V15.75C15.375 17.614 13.864 19.125 12 19.125C10.136 19.125 8.625 17.614 8.625 15.75V5.4375C8.625 2.43445 11.0595 0 14.0625 0C17.0655 0 19.5 2.43445 19.5 5.4375V16.5C19.5 20.6421 16.1421 24 12 24C7.85786 24 4.5 20.6421 4.5 16.5V5.25H6.75V16.5C6.75 19.3995 9.10051 21.75 12 21.75C14.8995 21.75 17.25 19.3995 17.25 16.5V5.4375C17.25 3.67709 15.8229 2.25 14.0625 2.25Z" fill="white"/>
</svg>
