<svg width="24" height="24" viewBox="0 0 24 24" fill="none" xmlns="http://www.w3.org/2000/svg">
<path d="M15 15.25H6.5C5.25736 15.25 4.25 16.2574 4.25 17.5V19.75H12V22H2V17.5C2 15.0147 4.01472 13 6.5 13H15V15.25Z" fill="white"/>
<path d="M19 17H22V19H19V22H17V19H14V17H17V14H19V17Z" fill="white"/>
<path fill-rule="evenodd" clip-rule="evenodd" d="M11 2C13.4853 2 15.5 4.01472 15.5 6.5C15.5 8.98528 13.4853 11 11 11C8.51472 11 6.5 8.98528 6.5 6.5C6.5 4.01472 8.51472 2 11 2ZM11 4.25C9.75736 4.25 8.75 5.25736 8.75 6.5C8.75 7.74264 9.75736 8.75 11 8.75C12.2426 8.75 13.25 7.74264 13.25 6.5C13.25 5.25736 12.2426 4.25 11 4.25Z" fill="white"/>
</svg>
