<svg width="24" height="24" viewBox="0 0 24 24" fill="none" xmlns="http://www.w3.org/2000/svg">
<path fill-rule="evenodd" clip-rule="evenodd" d="M13.5 0V5.25H4.5C2.01472 5.25 0 7.26472 0 9.75V19.5H11.25V24H13.5V19.5H24V9.75C24 7.26472 21.9853 5.25 19.5 5.25H15.75V2.25H19.5V0H13.5ZM2.25 9.75C2.25 8.50736 3.25736 7.5 4.5 7.5C5.74264 7.5 6.75 8.50736 6.75 9.75V17.25H2.25V9.75ZM21.75 17.25H9V9.75C9 8.93035 8.78086 8.16189 8.39798 7.5H13.5V12H15.75V7.5H19.5C20.7426 7.5 21.75 8.50736 21.75 9.75V17.25Z" fill="white"/>
</svg>
