<svg width="24" height="24" viewBox="0 0 24 24" fill="none" xmlns="http://www.w3.org/2000/svg">
<path d="M12 2.25C6.61522 2.25 2.25 6.61522 2.25 12C2.25 17.3848 6.61522 21.75 12 21.75C17.3848 21.75 21.75 17.3848 21.75 12H24C24 18.6274 18.6274 24 12 24C5.37258 24 0 18.6274 0 12C0 5.37258 5.37258 0 12 0V2.25ZM12 6.75V9.93164L11.25 9.18164V14.8184L14.0684 12H17.25L11.25 18H9V6H11.25L12 6.75Z" fill="white"/>
<path d="M13.5 4.5L17.25 3.75L18 0H19.5L20.25 3.75L24 4.5V6L20.25 6.75L19.5 10.5H18L17.25 6.75L13.5 6V4.5Z" fill="white"/>
<path fill-rule="evenodd" clip-rule="evenodd" d="M9 18H11.25L17.25 12L11.25 6H9V18ZM11.25 9.18198L14.068 12L11.25 14.818V9.18198Z" fill="white"/>
</svg>
