<svg width="24" height="24" viewBox="0 0 24 24" fill="none" xmlns="http://www.w3.org/2000/svg">
<path d="M10.875 9V15H13.125V9H10.875Z" fill="white"/>
<path fill-rule="evenodd" clip-rule="evenodd" d="M7.5 2.25H10.875V4.5642C6.02013 5.12198 2.25 9.24571 2.25 14.25C2.25 19.6348 6.61522 24 12 24C17.3848 24 21.75 19.6348 21.75 14.25C21.75 11.963 20.9626 9.85985 19.644 8.19698L21.7955 6.0455L20.2045 4.4545L18.053 6.60599C16.6668 5.5068 14.9746 4.77671 13.125 4.5642V2.25H16.5V0H7.5V2.25ZM19.5 14.25C19.5 18.3921 16.1421 21.75 12 21.75C7.85786 21.75 4.5 18.3921 4.5 14.25C4.5 10.1079 7.85786 6.75 12 6.75C16.1421 6.75 19.5 10.1079 19.5 14.25Z" fill="white"/>
</svg>
