<svg width="24" height="24" viewBox="0 0 24 24" fill="none" xmlns="http://www.w3.org/2000/svg">
<path fill-rule="evenodd" clip-rule="evenodd" d="M17.8393 10.3393L22.7041 6.32059C23.5248 5.64258 24 4.63359 24 3.56901C24 1.5979 22.4021 0 20.431 0C19.3664 0 18.3575 0.475231 17.6794 1.29597L13.6607 6.16073L13.1319 5.63193C12.4072 4.90717 11.4242 4.5 10.3992 4.5C9.49512 4.5 8.61964 4.81697 7.9251 5.39575L0 12L12 24L18.6043 16.0749C19.183 15.3804 19.5 14.5049 19.5 13.6008C19.5 12.5758 19.0928 11.5928 18.3681 10.8681L17.8393 10.3393ZM16.2411 8.74111L15.2589 7.75892L19.4141 2.72896C19.6647 2.42563 20.0376 2.25 20.431 2.25C21.1595 2.25 21.75 2.84054 21.75 3.56901C21.75 3.96245 21.5744 4.33535 21.2711 4.58592L16.2411 8.74111ZM3.33318 12.1512L6.45701 9.548L14.452 17.543L11.8488 20.6668L3.33318 12.1512ZM15.8984 15.8074L8.19264 8.10165L9.36552 7.12425C9.6557 6.88243 10.0215 6.75 10.3992 6.75C10.8274 6.75 11.2381 6.92012 11.5409 7.22292L16.7771 12.4591C17.0799 12.7619 17.25 13.1726 17.25 13.6008C17.25 13.9785 17.1176 14.3443 16.8758 14.6345L15.8984 15.8074Z" fill="white"/>
</svg>
