<svg width="24" height="24" viewBox="0 0 24 24" fill="none" xmlns="http://www.w3.org/2000/svg">
<path fill-rule="evenodd" clip-rule="evenodd" d="M17.8393 10.3393L22.704 6.32058C23.5248 5.64257 24 4.63358 24 3.56901C24 1.5979 22.4021 0 20.431 0C19.3664 0 18.3574 0.47523 17.6794 1.29597L13.6607 6.16072L13.1319 5.63193C12.4071 4.90716 11.4242 4.49999 10.3992 4.49999C9.4951 4.49999 8.61963 4.81696 7.92509 5.39574L0 12L12 24L18.6042 16.0749C19.183 15.3803 19.5 14.5049 19.5 13.6008C19.5 12.5758 19.0928 11.5928 18.368 10.868L17.8393 10.3393ZM16.2411 8.7411L15.2589 7.75891L19.4141 2.72895C19.6647 2.42563 20.0376 2.25 20.431 2.25C21.1595 2.25 21.75 2.84054 21.75 3.56901C21.75 3.96245 21.5744 4.33535 21.271 4.58592L16.2411 8.7411ZM3.33317 12.1512L6.457 9.54799L14.452 17.543L11.8488 20.6668L3.33317 12.1512ZM15.8983 15.8073L8.19263 8.10163L9.3655 7.12424C9.65568 6.88242 10.0215 6.74999 10.3992 6.74999C10.8274 6.74999 11.2381 6.92011 11.5409 7.22291L16.7771 12.459C17.0799 12.7618 17.25 13.1725 17.25 13.6008C17.25 13.9785 17.1175 14.3443 16.8757 14.6345L15.8983 15.8073Z" fill="white"/>
</svg>
