<svg width="24" height="24" viewBox="0 0 24 24" fill="none" xmlns="http://www.w3.org/2000/svg">
<path fill-rule="evenodd" clip-rule="evenodd" d="M9 22.5L3 16.5H0V7.5H3L9 1.5H12V22.5H9ZM2.25 14.25V9.75H3.93198L9.75 3.93198V20.068L3.93198 14.25H2.25Z" fill="white"/>
<path d="M15 5.25C18.7279 5.25 21.75 8.27208 21.75 12C21.75 15.7279 18.7279 18.75 15 18.75V21C19.9706 21 24 16.9706 24 12C24 7.02944 19.9706 3 15 3V5.25Z" fill="white"/>
<path d="M15 10.5C15.8284 10.5 16.5 11.1716 16.5 12C16.5 12.8284 15.8284 13.5 15 13.5V15.75C17.0711 15.75 18.75 14.0711 18.75 12C18.75 9.92893 17.0711 8.25 15 8.25V10.5Z" fill="white"/>
</svg>
