<svg width="24" height="24" viewBox="0 0 24 24" fill="none" xmlns="http://www.w3.org/2000/svg">
<path d="M12 -2.62268e-07C15.3137 -1.17422e-07 18 2.68629 18 6L18 18C18 21.3137 15.3137 24 12 24C8.68629 24 6 21.3137 6 18L6 6C6 2.68629 8.68629 -4.07115e-07 12 -2.62268e-07Z" fill="black"/>
<path d="M8.25 18H6L6 6L8.25 6L8.25 18ZM12 21.75C14.0711 21.75 15.75 20.0711 15.75 18L15.75 6C15.75 3.92893 14.0711 2.25 12 2.25C9.92893 2.25 8.25 3.92893 8.25 6L6 6L6.00732 5.69092C6.16298 2.6232 8.6232 0.162978 11.6909 0.00732421L12 0C15.2101 1.40316e-07 17.8318 2.52084 17.9927 5.69092L18 6L18 18C18 21.3137 15.3137 24 12 24L11.6909 23.9927C8.6232 23.837 6.16298 21.3768 6.00732 18.3091L6 18H8.25C8.25 20.0711 9.92893 21.75 12 21.75Z" fill="white"/>
</svg>
