<svg width="24" height="24" viewBox="0 0 24 24" fill="none" xmlns="http://www.w3.org/2000/svg">
<path d="M11.625 11.625H15V9.375H11.625V6H9.375V9.375H6V11.625H9.375V15H11.625V11.625Z" fill="white"/>
<path fill-rule="evenodd" clip-rule="evenodd" d="M21 10.5C21 12.9942 20.1303 15.2854 18.6776 17.0866L23.9705 22.3795L22.3795 23.9705L17.0866 18.6776C15.2854 20.1303 12.9942 21 10.5 21C4.70101 21 0 16.299 0 10.5C0 4.70101 4.70101 0 10.5 0C16.299 0 21 4.70101 21 10.5ZM18.75 10.5C18.75 15.0563 15.0563 18.75 10.5 18.75C5.94365 18.75 2.25 15.0563 2.25 10.5C2.25 5.94365 5.94365 2.25 10.5 2.25C15.0563 2.25 18.75 5.94365 18.75 10.5Z" fill="white"/>
</svg>
