<svg width="24" height="24" viewBox="0 0 24 24" fill="none" xmlns="http://www.w3.org/2000/svg">
<path d="M15 11.625H6V9.375H15V11.625Z" fill="white"/>
<path fill-rule="evenodd" clip-rule="evenodd" d="M18.6776 17.0866C20.1303 15.2854 21 12.9942 21 10.5C21 4.70101 16.299 0 10.5 0C4.70101 0 0 4.70101 0 10.5C0 16.299 4.70101 21 10.5 21C12.9942 21 15.2854 20.1303 17.0866 18.6776L22.3795 23.9705L23.9705 22.3795L18.6776 17.0866ZM10.5 18.75C15.0563 18.75 18.75 15.0563 18.75 10.5C18.75 5.94365 15.0563 2.25 10.5 2.25C5.94365 2.25 2.25 5.94365 2.25 10.5C2.25 15.0563 5.94365 18.75 10.5 18.75Z" fill="white"/>
</svg>
